<?xml version="1.0" encoding="UTF-8" standalone="no"?><svg xmlns="http://www.w3.org/2000/svg" xmlns:xlink="http://www.w3.org/1999/xlink" contentStyleType="text/css" height="278px" preserveAspectRatio="none" style="width:196px;height:278px;background:#FFFFFF;" version="1.1" viewBox="0 0 196 278" width="196px" zoomAndPan="magnify"><defs/><g><!--MD5=[919386ce46a6a5a7c71af782f732246a]
class Mundo--><g id="elem_Mundo"><rect fill="#F1F1F1" height="48" id="Mundo" rx="2.5" ry="2.5" style="stroke:#181818;stroke-width:0.5;" width="75" x="52" y="7"/><ellipse cx="67" cy="23" fill="#ADD1B2" rx="11" ry="11" style="stroke:#181818;stroke-width:1.0;"/><path d="M69.7656,18.875 Q69.9219,18.6563 70.1094,18.5469 Q70.2969,18.4375 70.5156,18.4375 Q70.8906,18.4375 71.125,18.7031 Q71.3594,18.9531 71.3594,19.5625 L71.3594,21.0156 Q71.3594,21.625 71.125,21.8906 Q70.8906,22.1563 70.5156,22.1563 Q70.1719,22.1563 69.9688,21.9531 Q69.7656,21.7656 69.6563,21.25 Q69.6094,20.8906 69.4219,20.7031 Q69.0938,20.3281 68.4844,20.1094 Q67.875,19.8906 67.25,19.8906 Q66.4844,19.8906 65.8438,20.2188 Q65.2188,20.5469 64.7188,21.2969 Q64.2344,22.0469 64.2344,23.0781 L64.2344,24.1719 Q64.2344,25.4063 65.125,26.2344 Q66.0156,27.0469 67.6094,27.0469 Q68.5469,27.0469 69.2031,26.7969 Q69.5938,26.6406 70.0156,26.2031 Q70.2813,25.9375 70.4219,25.8594 Q70.5781,25.7813 70.7813,25.7813 Q71.1094,25.7813 71.3594,26.0469 Q71.625,26.2969 71.625,26.6406 Q71.625,26.9844 71.2813,27.3906 Q70.7813,27.9688 69.9844,28.2969 Q68.9063,28.75 67.6094,28.75 Q66.0938,28.75 64.8906,28.125 Q63.9063,27.625 63.2188,26.5625 Q62.5313,25.4844 62.5313,24.2031 L62.5313,23.0469 Q62.5313,21.7188 63.1406,20.5781 Q63.7656,19.4219 64.8594,18.8125 Q65.9531,18.1875 67.1875,18.1875 Q67.9219,18.1875 68.5625,18.3594 Q69.2188,18.5156 69.7656,18.875 Z " fill="#000000"/><text fill="#000000" font-family="sans-serif" font-size="14" lengthAdjust="spacing" textLength="43" x="81" y="28.7285">Mundo</text><line style="stroke:#181818;stroke-width:0.5;" x1="53" x2="126" y1="39" y2="39"/><line style="stroke:#181818;stroke-width:0.5;" x1="53" x2="126" y1="47" y2="47"/></g><!--MD5=[90b9a4c9b73c006688efe43144d747a1]
class Habitacion--><g id="elem_Habitacion"><rect fill="#F1F1F1" height="48" id="Habitacion" rx="2.5" ry="2.5" style="stroke:#181818;stroke-width:0.5;" width="98" x="91.5" y="115"/><ellipse cx="106.5" cy="131" fill="#ADD1B2" rx="11" ry="11" style="stroke:#181818;stroke-width:1.0;"/><path d="M109.2656,126.875 Q109.4219,126.6563 109.6094,126.5469 Q109.7969,126.4375 110.0156,126.4375 Q110.3906,126.4375 110.625,126.7031 Q110.8594,126.9531 110.8594,127.5625 L110.8594,129.0156 Q110.8594,129.625 110.625,129.8906 Q110.3906,130.1563 110.0156,130.1563 Q109.6719,130.1563 109.4688,129.9531 Q109.2656,129.7656 109.1563,129.25 Q109.1094,128.8906 108.9219,128.7031 Q108.5938,128.3281 107.9844,128.1094 Q107.375,127.8906 106.75,127.8906 Q105.9844,127.8906 105.3438,128.2188 Q104.7188,128.5469 104.2188,129.2969 Q103.7344,130.0469 103.7344,131.0781 L103.7344,132.1719 Q103.7344,133.4063 104.625,134.2344 Q105.5156,135.0469 107.1094,135.0469 Q108.0469,135.0469 108.7031,134.7969 Q109.0938,134.6406 109.5156,134.2031 Q109.7813,133.9375 109.9219,133.8594 Q110.0781,133.7813 110.2813,133.7813 Q110.6094,133.7813 110.8594,134.0469 Q111.125,134.2969 111.125,134.6406 Q111.125,134.9844 110.7813,135.3906 Q110.2813,135.9688 109.4844,136.2969 Q108.4063,136.75 107.1094,136.75 Q105.5938,136.75 104.3906,136.125 Q103.4063,135.625 102.7188,134.5625 Q102.0313,133.4844 102.0313,132.2031 L102.0313,131.0469 Q102.0313,129.7188 102.6406,128.5781 Q103.2656,127.4219 104.3594,126.8125 Q105.4531,126.1875 106.6875,126.1875 Q107.4219,126.1875 108.0625,126.3594 Q108.7188,126.5156 109.2656,126.875 Z " fill="#000000"/><text fill="#000000" font-family="sans-serif" font-size="14" lengthAdjust="spacing" textLength="66" x="120.5" y="136.7285">Habitacion</text><line style="stroke:#181818;stroke-width:0.5;" x1="92.5" x2="188.5" y1="147" y2="147"/><line style="stroke:#181818;stroke-width:0.5;" x1="92.5" x2="188.5" y1="155" y2="155"/></g><!--MD5=[911fe1357c24e8165700ac79875f9a94]
class Gato--><g id="elem_Gato"><rect fill="#F1F1F1" height="48" id="Gato" rx="2.5" ry="2.5" style="stroke:#181818;stroke-width:0.5;" width="63" x="7" y="223"/><ellipse cx="22" cy="239" fill="#ADD1B2" rx="11" ry="11" style="stroke:#181818;stroke-width:1.0;"/><path d="M24.7656,234.875 Q24.9219,234.6563 25.1094,234.5469 Q25.2969,234.4375 25.5156,234.4375 Q25.8906,234.4375 26.125,234.7031 Q26.3594,234.9531 26.3594,235.5625 L26.3594,237.0156 Q26.3594,237.625 26.125,237.8906 Q25.8906,238.1563 25.5156,238.1563 Q25.1719,238.1563 24.9688,237.9531 Q24.7656,237.7656 24.6563,237.25 Q24.6094,236.8906 24.4219,236.7031 Q24.0938,236.3281 23.4844,236.1094 Q22.875,235.8906 22.25,235.8906 Q21.4844,235.8906 20.8438,236.2188 Q20.2188,236.5469 19.7188,237.2969 Q19.2344,238.0469 19.2344,239.0781 L19.2344,240.1719 Q19.2344,241.4063 20.125,242.2344 Q21.0156,243.0469 22.6094,243.0469 Q23.5469,243.0469 24.2031,242.7969 Q24.5938,242.6406 25.0156,242.2031 Q25.2813,241.9375 25.4219,241.8594 Q25.5781,241.7813 25.7813,241.7813 Q26.1094,241.7813 26.3594,242.0469 Q26.625,242.2969 26.625,242.6406 Q26.625,242.9844 26.2813,243.3906 Q25.7813,243.9688 24.9844,244.2969 Q23.9063,244.75 22.6094,244.75 Q21.0938,244.75 19.8906,244.125 Q18.9063,243.625 18.2188,242.5625 Q17.5313,241.4844 17.5313,240.2031 L17.5313,239.0469 Q17.5313,237.7188 18.1406,236.5781 Q18.7656,235.4219 19.8594,234.8125 Q20.9531,234.1875 22.1875,234.1875 Q22.9219,234.1875 23.5625,234.3594 Q24.2188,234.5156 24.7656,234.875 Z " fill="#000000"/><text fill="#000000" font-family="sans-serif" font-size="14" lengthAdjust="spacing" textLength="31" x="36" y="244.7285">Gato</text><line style="stroke:#181818;stroke-width:0.5;" x1="8" x2="69" y1="255" y2="255"/><line style="stroke:#181818;stroke-width:0.5;" x1="8" x2="69" y1="263" y2="263"/></g><!--MD5=[b6c30708762b61ff1436eb707341f1f5]
class Baldosa--><g id="elem_Baldosa"><rect fill="#F1F1F1" height="48" id="Baldosa" rx="2.5" ry="2.5" style="stroke:#181818;stroke-width:0.5;" width="83" x="105" y="223"/><ellipse cx="120" cy="239" fill="#ADD1B2" rx="11" ry="11" style="stroke:#181818;stroke-width:1.0;"/><path d="M122.7656,234.875 Q122.9219,234.6563 123.1094,234.5469 Q123.2969,234.4375 123.5156,234.4375 Q123.8906,234.4375 124.125,234.7031 Q124.3594,234.9531 124.3594,235.5625 L124.3594,237.0156 Q124.3594,237.625 124.125,237.8906 Q123.8906,238.1563 123.5156,238.1563 Q123.1719,238.1563 122.9688,237.9531 Q122.7656,237.7656 122.6563,237.25 Q122.6094,236.8906 122.4219,236.7031 Q122.0938,236.3281 121.4844,236.1094 Q120.875,235.8906 120.25,235.8906 Q119.4844,235.8906 118.8438,236.2188 Q118.2188,236.5469 117.7188,237.2969 Q117.2344,238.0469 117.2344,239.0781 L117.2344,240.1719 Q117.2344,241.4063 118.125,242.2344 Q119.0156,243.0469 120.6094,243.0469 Q121.5469,243.0469 122.2031,242.7969 Q122.5938,242.6406 123.0156,242.2031 Q123.2813,241.9375 123.4219,241.8594 Q123.5781,241.7813 123.7813,241.7813 Q124.1094,241.7813 124.3594,242.0469 Q124.625,242.2969 124.625,242.6406 Q124.625,242.9844 124.2813,243.3906 Q123.7813,243.9688 122.9844,244.2969 Q121.9063,244.75 120.6094,244.75 Q119.0938,244.75 117.8906,244.125 Q116.9063,243.625 116.2188,242.5625 Q115.5313,241.4844 115.5313,240.2031 L115.5313,239.0469 Q115.5313,237.7188 116.1406,236.5781 Q116.7656,235.4219 117.8594,234.8125 Q118.9531,234.1875 120.1875,234.1875 Q120.9219,234.1875 121.5625,234.3594 Q122.2188,234.5156 122.7656,234.875 Z " fill="#000000"/><text fill="#000000" font-family="sans-serif" font-size="14" lengthAdjust="spacing" textLength="51" x="134" y="244.7285">Baldosa</text><line style="stroke:#181818;stroke-width:0.5;" x1="106" x2="187" y1="255" y2="255"/><line style="stroke:#181818;stroke-width:0.5;" x1="106" x2="187" y1="263" y2="263"/></g><!--MD5=[6e08d2760e8ac984b4a01a79afafab0c]
reverse link Mundo to Habitacion--><g id="link_Mundo_Habitacion"><path codeLine="1" d="M106.31,66.94 C113.85,82.61 122.55,100.68 129.28,114.68 " fill="none" id="Mundo-backto-Habitacion" style="stroke:#181818;stroke-width:1.0;"/><polygon fill="#181818" points="100.57,55,99.5702,62.1415,105.7778,65.8111,106.7776,58.6696,100.57,55" style="stroke:#181818;stroke-width:1.0;"/></g><!--MD5=[87ac95be48734aa89136229074de4b09]
reverse link Mundo to Gato--><g id="link_Mundo_Gato"><path codeLine="2" d="M80.93,67.97 C70.42,112.04 52.93,185.43 44.05,222.72 " fill="none" id="Mundo-backto-Gato" style="stroke:#181818;stroke-width:1.0;"/><polygon fill="#181818" points="83.95,55.31,78.6676,60.2187,81.167,66.9828,86.4494,62.0741,83.95,55.31" style="stroke:#181818;stroke-width:1.0;"/></g><!--MD5=[5703bd999aab40a6a087586e2a908406]
reverse link Habitacion to Baldosa--><g id="link_Habitacion_Baldosa"><path codeLine="3" d="M142.56,176.34 C143.43,191.68 144.41,209.1 145.18,222.68 " fill="none" id="Habitacion-backto-Baldosa" style="stroke:#181818;stroke-width:1.0;"/><polygon fill="#181818" points="141.8,163,138.1492,169.2187,142.4853,174.9804,146.1361,168.7618,141.8,163" style="stroke:#181818;stroke-width:1.0;"/></g><!--MD5=[30dbf26e3f3615d431fea8d8aefd02a4]
link Habitacion to Gato--><g id="link_Habitacion_Gato"><path codeLine="4" d="M118.37,163 C101.38,180.66 78.01,204.94 60.94,222.68 " fill="none" id="Habitacion-Gato" style="stroke:#181818;stroke-width:1.0;stroke-dasharray:7.0,7.0;"/></g><!--MD5=[f4b5cc8b20d932c65f52664f648468f2]
@startuml
Mundo *- - Habitacion
Mundo *- - Gato
Habitacion *- - Baldosa 
Habitacion .. Gato
@enduml

PlantUML version 1.2022.7(Mon Aug 22 19:01:30 CEST 2022)
(GPL source distribution)
Java Runtime: Java(TM) SE Runtime Environment
JVM: Java HotSpot(TM) 64-Bit Server VM
Default Encoding: UTF-8
Language: es
Country: ES
--></g></svg>