<?xml version="1.0" encoding="us-ascii" standalone="no"?><svg xmlns="http://www.w3.org/2000/svg" xmlns:xlink="http://www.w3.org/1999/xlink" contentStyleType="text/css" height="790px" preserveAspectRatio="none" style="width:496px;height:790px;background:#FFFFFF;" version="1.1" viewBox="0 0 496 790" width="496px" zoomAndPan="magnify"><defs/><g><!--class Mundo--><g id="elem_Mundo"><rect codeLine="1" fill="#F1F1F1" height="129.4844" id="Mundo" rx="2.5" ry="2.5" style="stroke:#181818;stroke-width:0.5;" width="214" x="125" y="7"/><ellipse cx="204.25" cy="23" fill="#ADD1B2" rx="11" ry="11" style="stroke:#181818;stroke-width:1.0;"/><path d="M206.5938,18.6719 C205.6563,18.2344 205.0625,18.0938 204.1875,18.0938 C201.5625,18.0938 199.5625,20.1719 199.5625,22.8906 L199.5625,24.0156 C199.5625,26.5938 201.6719,28.4844 204.5625,28.4844 C205.7813,28.4844 206.9375,28.1875 207.6875,27.6406 C208.2656,27.2344 208.5938,26.7813 208.5938,26.3906 C208.5938,25.9375 208.2031,25.5469 207.7344,25.5469 C207.5156,25.5469 207.3125,25.625 207.125,25.8125 C206.6719,26.2969 206.6719,26.2969 206.4844,26.3906 C206.0625,26.6563 205.375,26.7813 204.6094,26.7813 C202.5625,26.7813 201.2656,25.6875 201.2656,23.9844 L201.2656,22.8906 C201.2656,21.1094 202.5156,19.7969 204.25,19.7969 C204.8281,19.7969 205.4375,19.9531 205.9063,20.2031 C206.3906,20.4844 206.5625,20.7031 206.6563,21.1094 C206.7188,21.5156 206.75,21.6406 206.8906,21.7656 C207.0313,21.9063 207.2656,22.0156 207.4844,22.0156 C207.75,22.0156 208.0156,21.875 208.1875,21.6563 C208.2969,21.5 208.3281,21.3125 208.3281,20.8906 L208.3281,19.4688 C208.3281,19.0313 208.3125,18.9063 208.2188,18.75 C208.0625,18.4844 207.7813,18.3438 207.4844,18.3438 C207.1875,18.3438 206.9844,18.4375 206.7656,18.75 L206.5938,18.6719 Z " fill="#000000"/><text fill="#000000" font-family="sans-serif" font-size="14" lengthAdjust="spacing" textLength="47" x="224.75" y="27.8467">Mundo</text><line style="stroke:#181818;stroke-width:0.5;" x1="126" x2="338" y1="39" y2="39"/><ellipse cx="136" cy="52.6484" fill="none" rx="3" ry="3" style="stroke:#038048;stroke-width:1.0;"/><text fill="#000000" font-family="sans-serif" font-size="14" lengthAdjust="spacing" textLength="188" x="145" y="55.9951">Habitacion[]: habitaciones</text><rect fill="none" height="6" style="stroke:#C82930;stroke-width:1.0;" width="6" x="133" y="65.9453"/><text fill="#000000" font-family="sans-serif" font-size="14" lengthAdjust="spacing" textLength="68" x="145" y="72.292">continuar</text><line style="stroke:#181818;stroke-width:0.5;" x1="126" x2="338" y1="79.5938" y2="79.5938"/><ellipse cx="136" cy="93.2422" fill="#84BE84" rx="3" ry="3" style="stroke:#038048;stroke-width:1.0;"/><text fill="#000000" font-family="sans-serif" font-size="14" lengthAdjust="spacing" textLength="57" x="145" y="96.5889">Mundo()</text><rect fill="#F24D5C" height="6" style="stroke:#C82930;stroke-width:1.0;" width="6" x="133" y="106.5391"/><text fill="#000000" font-family="sans-serif" font-size="14" lengthAdjust="spacing" textLength="100" x="145" y="112.8857">iniciarMundo()</text><ellipse cx="136" cy="125.8359" fill="#84BE84" rx="3" ry="3" style="stroke:#038048;stroke-width:1.0;"/><text fill="#000000" font-family="sans-serif" font-size="14" lengthAdjust="spacing" textLength="45" x="145" y="129.1826">main()</text></g><!--class Habitacion--><g id="elem_Habitacion"><rect codeLine="9" fill="#F1F1F1" height="276.1563" id="Habitacion" rx="2.5" ry="2.5" style="stroke:#181818;stroke-width:0.5;" width="404" x="30" y="257"/><ellipse cx="189.25" cy="273" fill="#ADD1B2" rx="11" ry="11" style="stroke:#181818;stroke-width:1.0;"/><path d="M191.5938,268.6719 C190.6563,268.2344 190.0625,268.0938 189.1875,268.0938 C186.5625,268.0938 184.5625,270.1719 184.5625,272.8906 L184.5625,274.0156 C184.5625,276.5938 186.6719,278.4844 189.5625,278.4844 C190.7813,278.4844 191.9375,278.1875 192.6875,277.6406 C193.2656,277.2344 193.5938,276.7813 193.5938,276.3906 C193.5938,275.9375 193.2031,275.5469 192.7344,275.5469 C192.5156,275.5469 192.3125,275.625 192.125,275.8125 C191.6719,276.2969 191.6719,276.2969 191.4844,276.3906 C191.0625,276.6563 190.375,276.7813 189.6094,276.7813 C187.5625,276.7813 186.2656,275.6875 186.2656,273.9844 L186.2656,272.8906 C186.2656,271.1094 187.5156,269.7969 189.25,269.7969 C189.8281,269.7969 190.4375,269.9531 190.9063,270.2031 C191.3906,270.4844 191.5625,270.7031 191.6563,271.1094 C191.7188,271.5156 191.75,271.6406 191.8906,271.7656 C192.0313,271.9063 192.2656,272.0156 192.4844,272.0156 C192.75,272.0156 193.0156,271.875 193.1875,271.6563 C193.2969,271.5 193.3281,271.3125 193.3281,270.8906 L193.3281,269.4688 C193.3281,269.0313 193.3125,268.9063 193.2188,268.75 C193.0625,268.4844 192.7813,268.3438 192.4844,268.3438 C192.1875,268.3438 191.9844,268.4375 191.7656,268.75 L191.5938,268.6719 Z " fill="#000000"/><text fill="#000000" font-family="sans-serif" font-size="14" lengthAdjust="spacing" textLength="77" x="209.75" y="277.8467">Habitacion</text><line style="stroke:#181818;stroke-width:0.5;" x1="31" x2="433" y1="289" y2="289"/><rect fill="none" height="6" style="stroke:#C82930;stroke-width:1.0;" width="6" x="38" y="299.6484"/><text fill="#000000" font-family="sans-serif" font-size="14" lengthAdjust="spacing" textLength="146" x="50" y="305.9951">Baldosa[][]: baldosas</text><rect fill="none" height="6" style="stroke:#C82930;stroke-width:1.0;" width="6" x="38" y="315.9453"/><text fill="#000000" font-family="sans-serif" font-size="14" lengthAdjust="spacing" textLength="89" x="50" y="322.292">Gato[]: Gato</text><ellipse cx="41" cy="335.2422" fill="none" rx="3" ry="3" style="stroke:#038048;stroke-width:1.0;"/><text fill="#000000" font-family="sans-serif" font-size="14" lengthAdjust="spacing" textLength="67" x="50" y="338.5889">int ancho</text><ellipse cx="41" cy="351.5391" fill="none" rx="3" ry="3" style="stroke:#038048;stroke-width:1.0;"/><text fill="#000000" font-family="sans-serif" font-size="14" lengthAdjust="spacing" textLength="60" x="50" y="354.8857">int largo</text><line style="stroke:#181818;stroke-width:0.5;" x1="31" x2="433" y1="362.1875" y2="362.1875"/><ellipse cx="41" cy="375.8359" fill="#84BE84" rx="3" ry="3" style="stroke:#038048;stroke-width:1.0;"/><text fill="#000000" font-family="sans-serif" font-size="14" lengthAdjust="spacing" textLength="378" x="50" y="379.1826">Habitacion(int ancho, int largo, int cantidadDeGatos)</text><ellipse cx="41" cy="392.1328" fill="#84BE84" rx="3" ry="3" style="stroke:#038048;stroke-width:1.0;"/><text fill="#000000" font-family="sans-serif" font-size="14" lengthAdjust="spacing" textLength="104" x="50" y="395.4795">pasarTiempo()</text><rect fill="#F24D5C" height="6" style="stroke:#C82930;stroke-width:1.0;" width="6" x="38" y="405.4297"/><text fill="#000000" font-family="sans-serif" font-size="14" lengthAdjust="spacing" textLength="149" x="50" y="411.7764">imprimirHabitacion()</text><rect fill="#F24D5C" height="6" style="stroke:#C82930;stroke-width:1.0;" width="6" x="38" y="421.7266"/><text fill="#000000" font-family="sans-serif" font-size="14" lengthAdjust="spacing" textLength="164" x="50" y="428.0732">comprobarSiHayGato()</text><rect fill="#F24D5C" height="6" style="stroke:#C82930;stroke-width:1.0;" width="6" x="38" y="438.0234"/><text fill="#000000" font-family="sans-serif" font-size="14" lengthAdjust="spacing" textLength="114" x="50" y="444.3701">parseSuciedad()</text><rect fill="#F24D5C" height="6" style="stroke:#C82930;stroke-width:1.0;" width="6" x="38" y="454.3203"/><text fill="#000000" font-family="sans-serif" font-size="14" lengthAdjust="spacing" textLength="95" x="50" y="460.667">printBorder()</text><ellipse cx="41" cy="473.6172" fill="#84BE84" rx="3" ry="3" style="stroke:#038048;stroke-width:1.0;"/><text fill="#000000" font-family="sans-serif" font-size="14" lengthAdjust="spacing" textLength="117" x="50" y="476.9639">limpiarPantalla()</text><ellipse cx="41" cy="489.9141" fill="#84BE84" rx="3" ry="3" style="stroke:#038048;stroke-width:1.0;"/><text fill="#000000" font-family="sans-serif" font-size="14" lengthAdjust="spacing" textLength="319" x="50" y="493.2607">ensuciarBaldosa(int posicionX, int posicionY)</text><ellipse cx="41" cy="506.2109" fill="#84BE84" rx="3" ry="3" style="stroke:#038048;stroke-width:1.0;"/><text fill="#000000" font-family="sans-serif" font-size="14" lengthAdjust="spacing" textLength="162" x="50" y="509.5576">cambiarPosicionGato()</text><ellipse cx="41" cy="522.5078" fill="#84BE84" rx="3" ry="3" style="stroke:#038048;stroke-width:1.0;"/><text fill="#000000" font-family="sans-serif" font-size="14" lengthAdjust="spacing" textLength="146" x="50" y="525.8545">posicionInicialGato()</text></g><!--class Baldosa--><g id="elem_Baldosa"><rect codeLine="26" fill="#F1F1F1" height="129.4844" id="Baldosa" rx="2.5" ry="2.5" style="stroke:#181818;stroke-width:0.5;" width="192" x="7" y="654"/><ellipse cx="71.25" cy="670" fill="#ADD1B2" rx="11" ry="11" style="stroke:#181818;stroke-width:1.0;"/><path d="M73.5938,665.6719 C72.6563,665.2344 72.0625,665.0938 71.1875,665.0938 C68.5625,665.0938 66.5625,667.1719 66.5625,669.8906 L66.5625,671.0156 C66.5625,673.5938 68.6719,675.4844 71.5625,675.4844 C72.7813,675.4844 73.9375,675.1875 74.6875,674.6406 C75.2656,674.2344 75.5938,673.7813 75.5938,673.3906 C75.5938,672.9375 75.2031,672.5469 74.7344,672.5469 C74.5156,672.5469 74.3125,672.625 74.125,672.8125 C73.6719,673.2969 73.6719,673.2969 73.4844,673.3906 C73.0625,673.6563 72.375,673.7813 71.6094,673.7813 C69.5625,673.7813 68.2656,672.6875 68.2656,670.9844 L68.2656,669.8906 C68.2656,668.1094 69.5156,666.7969 71.25,666.7969 C71.8281,666.7969 72.4375,666.9531 72.9063,667.2031 C73.3906,667.4844 73.5625,667.7031 73.6563,668.1094 C73.7188,668.5156 73.75,668.6406 73.8906,668.7656 C74.0313,668.9063 74.2656,669.0156 74.4844,669.0156 C74.75,669.0156 75.0156,668.875 75.1875,668.6563 C75.2969,668.5 75.3281,668.3125 75.3281,667.8906 L75.3281,666.4688 C75.3281,666.0313 75.3125,665.9063 75.2188,665.75 C75.0625,665.4844 74.7813,665.3438 74.4844,665.3438 C74.1875,665.3438 73.9844,665.4375 73.7656,665.75 L73.5938,665.6719 Z " fill="#000000"/><text fill="#000000" font-family="sans-serif" font-size="14" lengthAdjust="spacing" textLength="55" x="91.75" y="674.8467">Baldosa</text><line style="stroke:#181818;stroke-width:0.5;" x1="8" x2="198" y1="686" y2="686"/><ellipse cx="18" cy="699.6484" fill="none" rx="3" ry="3" style="stroke:#038048;stroke-width:1.0;"/><text fill="#000000" font-family="sans-serif" font-size="14" lengthAdjust="spacing" textLength="73" x="27" y="702.9951">int estado</text><line style="stroke:#181818;stroke-width:0.5;" x1="8" x2="198" y1="710.2969" y2="710.2969"/><ellipse cx="18" cy="723.9453" fill="#84BE84" rx="3" ry="3" style="stroke:#038048;stroke-width:1.0;"/><text fill="#000000" font-family="sans-serif" font-size="14" lengthAdjust="spacing" textLength="65" x="27" y="727.292">Baldosa()</text><rect fill="#F24D5C" height="6" style="stroke:#C82930;stroke-width:1.0;" width="6" x="15" y="737.2422"/><text fill="#000000" font-family="sans-serif" font-size="14" lengthAdjust="spacing" textLength="147" x="27" y="743.5889">definirEstadoInicial()</text><ellipse cx="18" cy="756.5391" fill="#84BE84" rx="3" ry="3" style="stroke:#038048;stroke-width:1.0;"/><text fill="#000000" font-family="sans-serif" font-size="14" lengthAdjust="spacing" textLength="124" x="27" y="759.8857">ensuciarBaldosa()</text><ellipse cx="18" cy="772.8359" fill="#84BE84" rx="3" ry="3" style="stroke:#038048;stroke-width:1.0;"/><text fill="#000000" font-family="sans-serif" font-size="14" lengthAdjust="spacing" textLength="166" x="27" y="776.1826">verEstadoDeSuciedad()</text></g><!--class Gato--><g id="elem_Gato"><rect codeLine="34" fill="#F1F1F1" height="129.4844" id="Gato" rx="2.5" ry="2.5" style="stroke:#181818;stroke-width:0.5;" width="255" x="234.5" y="654"/><ellipse cx="340.25" cy="670" fill="#ADD1B2" rx="11" ry="11" style="stroke:#181818;stroke-width:1.0;"/><path d="M342.5938,665.6719 C341.6563,665.2344 341.0625,665.0938 340.1875,665.0938 C337.5625,665.0938 335.5625,667.1719 335.5625,669.8906 L335.5625,671.0156 C335.5625,673.5938 337.6719,675.4844 340.5625,675.4844 C341.7813,675.4844 342.9375,675.1875 343.6875,674.6406 C344.2656,674.2344 344.5938,673.7813 344.5938,673.3906 C344.5938,672.9375 344.2031,672.5469 343.7344,672.5469 C343.5156,672.5469 343.3125,672.625 343.125,672.8125 C342.6719,673.2969 342.6719,673.2969 342.4844,673.3906 C342.0625,673.6563 341.375,673.7813 340.6094,673.7813 C338.5625,673.7813 337.2656,672.6875 337.2656,670.9844 L337.2656,669.8906 C337.2656,668.1094 338.5156,666.7969 340.25,666.7969 C340.8281,666.7969 341.4375,666.9531 341.9063,667.2031 C342.3906,667.4844 342.5625,667.7031 342.6563,668.1094 C342.7188,668.5156 342.75,668.6406 342.8906,668.7656 C343.0313,668.9063 343.2656,669.0156 343.4844,669.0156 C343.75,669.0156 344.0156,668.875 344.1875,668.6563 C344.2969,668.5 344.3281,668.3125 344.3281,667.8906 L344.3281,666.4688 C344.3281,666.0313 344.3125,665.9063 344.2188,665.75 C344.0625,665.4844 343.7813,665.3438 343.4844,665.3438 C343.1875,665.3438 342.9844,665.4375 342.7656,665.75 L342.5938,665.6719 Z " fill="#000000"/><text fill="#000000" font-family="sans-serif" font-size="14" lengthAdjust="spacing" textLength="35" x="360.75" y="674.8467">Gato</text><line style="stroke:#181818;stroke-width:0.5;" x1="235.5" x2="488.5" y1="686" y2="686"/><ellipse cx="245.5" cy="699.6484" fill="none" rx="3" ry="3" style="stroke:#038048;stroke-width:1.0;"/><text fill="#000000" font-family="sans-serif" font-size="14" lengthAdjust="spacing" textLength="94" x="254.5" y="702.9951">int posicionX</text><ellipse cx="245.5" cy="715.9453" fill="none" rx="3" ry="3" style="stroke:#038048;stroke-width:1.0;"/><text fill="#000000" font-family="sans-serif" font-size="14" lengthAdjust="spacing" textLength="93" x="254.5" y="719.292">int posicionY</text><line style="stroke:#181818;stroke-width:0.5;" x1="235.5" x2="488.5" y1="726.5938" y2="726.5938"/><ellipse cx="245.5" cy="740.2422" fill="#84BE84" rx="3" ry="3" style="stroke:#038048;stroke-width:1.0;"/><text fill="#000000" font-family="sans-serif" font-size="14" lengthAdjust="spacing" textLength="202" x="254.5" y="743.5889">Gato(Habitacion habitacion)</text><ellipse cx="245.5" cy="756.5391" fill="#84BE84" rx="3" ry="3" style="stroke:#038048;stroke-width:1.0;"/><text fill="#000000" font-family="sans-serif" font-size="14" lengthAdjust="spacing" textLength="229" x="254.5" y="759.8857">moverse(Habitacion habitacion)</text><ellipse cx="245.5" cy="772.8359" fill="#84BE84" rx="3" ry="3" style="stroke:#038048;stroke-width:1.0;"/><text fill="#000000" font-family="sans-serif" font-size="14" lengthAdjust="spacing" textLength="226" x="254.5" y="776.1826">ensuciar(Habitacion habitacion)</text></g><!--reverse link Mundo to Habitacion--><g id="link_Mundo_Habitacion"><path codeLine="43" d="M232,149.416 C232,181.622 232,220.062 232,256.821 " fill="none" id="Mundo-backto-Habitacion" style="stroke:#181818;stroke-width:1.0;"/><polygon fill="#181818" points="232,136.018,228,142.018,232,148.018,236,142.018,232,136.018" style="stroke:#181818;stroke-width:1.0;"/></g><!--reverse link Habitacion to Baldosa--><g id="link_Habitacion_Baldosa"><path codeLine="45" d="M171.962,545.629 C156.648,583.797 140.996,622.805 128.483,653.991 " fill="none" id="Habitacion-backto-Baldosa" style="stroke:#181818;stroke-width:1.0;"/><polygon fill="#181818" points="176.918,533.277,170.9713,537.3559,172.4493,544.4139,178.3959,540.335,176.918,533.277" style="stroke:#181818;stroke-width:1.0;"/></g><!--link Habitacion to Gato--><g id="link_Habitacion_Gato"><path codeLine="46" d="M287.509,533.277 C304.485,575.262 322.345,619.43 336.32,653.991 " fill="none" id="Habitacion-Gato" style="stroke:#181818;stroke-width:1.0;stroke-dasharray:7.0,7.0;"/></g><!--SRC=[VLBBJiCm4BpdAtnCAUa7SAo2A0Saf7AWgdhOs8QkvDYHdI2XYd_7TjQE4PHSafrzpCnckGBdsDEaXRbKp3zhjeCEH-1ezF5qnyuvaeuAOdMzYb73K2D7i3z1RlI8UW9BBJsWziclgkAHSE5W5shPWXB6mV4KMBivS9HxWD44EBnf8kgHWURdCbPWtyql5tKklLsgvayENgO0qSemsQseTm07zWLbFnGs-y5YZxQOkvZrETE1tUCEFiEad1h0EhcVE4hFig3Mas-D5TBMYLDv0h_6Pwy8b8ACI-sci5zQJpGp68T1mUli8eM7rCEXxy8imWj5wrpy67-Rebp-CKHpAROgtGWYhJN9I5Q4VFC7OEzZ3SsygZtX7v8Qsd8tMKFGL0h8Tl_03eH57yLLBMURI7lZQPtyloWflbOLHCPBPpTDspJ5bLLLqJ8doJOhCvlD9chz1W00]--></g></svg>