<?xml version="1.0" encoding="UTF-8" standalone="no"?><svg xmlns="http://www.w3.org/2000/svg" xmlns:xlink="http://www.w3.org/1999/xlink" contentStyleType="text/css" height="717px" preserveAspectRatio="none" style="width:443px;height:717px;background:#FFFFFF;" version="1.1" viewBox="0 0 443 717" width="443px" zoomAndPan="magnify"><defs/><g><!--MD5=[919386ce46a6a5a7c71af782f732246a]
class Mundo--><g id="elem_Mundo"><rect codeLine="2" fill="#F1F1F1" height="136.0469" id="Mundo" rx="2.5" ry="2.5" style="stroke:#181818;stroke-width:0.5;" width="165" x="74" y="7"/><ellipse cx="130.75" cy="23" fill="#ADD1B2" rx="11" ry="11" style="stroke:#181818;stroke-width:1.0;"/><path d="M133.5156,18.875 Q133.6719,18.6563 133.8594,18.5469 Q134.0469,18.4375 134.2656,18.4375 Q134.6406,18.4375 134.875,18.7031 Q135.1094,18.9531 135.1094,19.5625 L135.1094,21.0156 Q135.1094,21.625 134.875,21.8906 Q134.6406,22.1563 134.2656,22.1563 Q133.9219,22.1563 133.7188,21.9531 Q133.5156,21.7656 133.4063,21.25 Q133.3594,20.8906 133.1719,20.7031 Q132.8438,20.3281 132.2344,20.1094 Q131.625,19.8906 131,19.8906 Q130.2344,19.8906 129.5938,20.2188 Q128.9688,20.5469 128.4688,21.2969 Q127.9844,22.0469 127.9844,23.0781 L127.9844,24.1719 Q127.9844,25.4063 128.875,26.2344 Q129.7656,27.0469 131.3594,27.0469 Q132.2969,27.0469 132.9531,26.7969 Q133.3438,26.6406 133.7656,26.2031 Q134.0313,25.9375 134.1719,25.8594 Q134.3281,25.7813 134.5313,25.7813 Q134.8594,25.7813 135.1094,26.0469 Q135.375,26.2969 135.375,26.6406 Q135.375,26.9844 135.0313,27.3906 Q134.5313,27.9688 133.7344,28.2969 Q132.6563,28.75 131.3594,28.75 Q129.8438,28.75 128.6406,28.125 Q127.6563,27.625 126.9688,26.5625 Q126.2813,25.4844 126.2813,24.2031 L126.2813,23.0469 Q126.2813,21.7188 126.8906,20.5781 Q127.5156,19.4219 128.6094,18.8125 Q129.7031,18.1875 130.9375,18.1875 Q131.6719,18.1875 132.3125,18.3594 Q132.9688,18.5156 133.5156,18.875 Z " fill="#000000"/><text fill="#000000" font-family="sans-serif" font-size="14" lengthAdjust="spacing" textLength="43" x="151.25" y="28.7285">Mundo</text><line style="stroke:#181818;stroke-width:0.5;" x1="75" x2="238" y1="39" y2="39"/><rect fill="none" height="6" style="stroke:#C82930;stroke-width:1.0;" width="6" x="82" y="50.3047"/><text fill="#000000" font-family="sans-serif" font-size="14" lengthAdjust="spacing" textLength="139" x="94" y="57.5332">habitacion: Habitacion</text><rect fill="none" height="6" style="stroke:#C82930;stroke-width:1.0;" width="6" x="82" y="67.9141"/><text fill="#000000" font-family="sans-serif" font-size="14" lengthAdjust="spacing" textLength="67" x="94" y="75.1426">gato: Gato</text><line style="stroke:#181818;stroke-width:0.5;" x1="75" x2="238" y1="82.2188" y2="82.2188"/><ellipse cx="85" cy="96.5234" fill="#84BE84" rx="3" ry="3" style="stroke:#038048;stroke-width:1.0;"/><text fill="#000000" font-family="sans-serif" font-size="14" lengthAdjust="spacing" textLength="53" x="94" y="100.752">Mundo()</text><ellipse cx="85" cy="114.1328" fill="#84BE84" rx="3" ry="3" style="stroke:#038048;stroke-width:1.0;"/><text fill="#000000" font-family="sans-serif" font-size="14" lengthAdjust="spacing" textLength="64" x="94" y="118.3613">empezar()</text><ellipse cx="85" cy="131.7422" fill="#84BE84" rx="3" ry="3" style="stroke:#038048;stroke-width:1.0;"/><text fill="#000000" font-family="sans-serif" font-size="14" lengthAdjust="spacing" textLength="40" x="94" y="135.9707">main()</text></g><!--MD5=[90b9a4c9b73c006688efe43144d747a1]
class Habitacion--><g id="elem_Habitacion"><rect codeLine="10" fill="#F1F1F1" height="188.875" id="Habitacion" rx="2.5" ry="2.5" style="stroke:#181818;stroke-width:0.5;" width="261" x="175" y="264"/><ellipse cx="268.25" cy="280" fill="#ADD1B2" rx="11" ry="11" style="stroke:#181818;stroke-width:1.0;"/><path d="M271.0156,275.875 Q271.1719,275.6563 271.3594,275.5469 Q271.5469,275.4375 271.7656,275.4375 Q272.1406,275.4375 272.375,275.7031 Q272.6094,275.9531 272.6094,276.5625 L272.6094,278.0156 Q272.6094,278.625 272.375,278.8906 Q272.1406,279.1563 271.7656,279.1563 Q271.4219,279.1563 271.2188,278.9531 Q271.0156,278.7656 270.9063,278.25 Q270.8594,277.8906 270.6719,277.7031 Q270.3438,277.3281 269.7344,277.1094 Q269.125,276.8906 268.5,276.8906 Q267.7344,276.8906 267.0938,277.2188 Q266.4688,277.5469 265.9688,278.2969 Q265.4844,279.0469 265.4844,280.0781 L265.4844,281.1719 Q265.4844,282.4063 266.375,283.2344 Q267.2656,284.0469 268.8594,284.0469 Q269.7969,284.0469 270.4531,283.7969 Q270.8438,283.6406 271.2656,283.2031 Q271.5313,282.9375 271.6719,282.8594 Q271.8281,282.7813 272.0313,282.7813 Q272.3594,282.7813 272.6094,283.0469 Q272.875,283.2969 272.875,283.6406 Q272.875,283.9844 272.5313,284.3906 Q272.0313,284.9688 271.2344,285.2969 Q270.1563,285.75 268.8594,285.75 Q267.3438,285.75 266.1406,285.125 Q265.1563,284.625 264.4688,283.5625 Q263.7813,282.4844 263.7813,281.2031 L263.7813,280.0469 Q263.7813,278.7188 264.3906,277.5781 Q265.0156,276.4219 266.1094,275.8125 Q267.2031,275.1875 268.4375,275.1875 Q269.1719,275.1875 269.8125,275.3594 Q270.4688,275.5156 271.0156,275.875 Z " fill="#000000"/><text fill="#000000" font-family="sans-serif" font-size="14" lengthAdjust="spacing" textLength="66" x="288.75" y="285.7285">Habitacion</text><line style="stroke:#181818;stroke-width:0.5;" x1="176" x2="435" y1="296" y2="296"/><rect fill="none" height="6" style="stroke:#C82930;stroke-width:1.0;" width="6" x="183" y="307.3047"/><text fill="#000000" font-family="sans-serif" font-size="14" lengthAdjust="spacing" textLength="132" x="195" y="314.5332">baldosas[][]: Baldosa</text><ellipse cx="186" cy="327.9141" fill="none" rx="3" ry="3" style="stroke:#038048;stroke-width:1.0;"/><text fill="#000000" font-family="sans-serif" font-size="14" lengthAdjust="spacing" textLength="55" x="195" y="332.1426">largo: int</text><ellipse cx="186" cy="345.5234" fill="none" rx="3" ry="3" style="stroke:#038048;stroke-width:1.0;"/><text fill="#000000" font-family="sans-serif" font-size="14" lengthAdjust="spacing" textLength="62" x="195" y="349.752">ancho: int</text><line style="stroke:#181818;stroke-width:0.5;" x1="176" x2="435" y1="356.8281" y2="356.8281"/><ellipse cx="186" cy="371.1328" fill="#84BE84" rx="3" ry="3" style="stroke:#038048;stroke-width:1.0;"/><text fill="#000000" font-family="sans-serif" font-size="14" lengthAdjust="spacing" textLength="201" x="195" y="375.3613">Habitacion(largo: int, ancho: int)</text><ellipse cx="186" cy="388.7422" fill="#84BE84" rx="3" ry="3" style="stroke:#038048;stroke-width:1.0;"/><text fill="#000000" font-family="sans-serif" font-size="14" lengthAdjust="spacing" textLength="59" x="195" y="392.9707">imprimir()</text><ellipse cx="186" cy="406.3516" fill="#84BE84" rx="3" ry="3" style="stroke:#038048;stroke-width:1.0;"/><text fill="#000000" font-family="sans-serif" font-size="14" lengthAdjust="spacing" textLength="235" x="195" y="410.5801">ensuciar(posicionX: int,posicionY: int)</text><rect fill="#F24D5C" height="6" style="stroke:#C82930;stroke-width:1.0;" width="6" x="183" y="420.9609"/><text fill="#000000" font-family="sans-serif" font-size="14" lengthAdjust="spacing" textLength="94" x="195" y="428.1895">imprimeLinea()</text><rect fill="#F24D5C" height="6" style="stroke:#C82930;stroke-width:1.0;" width="6" x="183" y="438.5703"/><text fill="#000000" font-family="sans-serif" font-size="14" lengthAdjust="spacing" textLength="95" x="195" y="445.7988">borraPantalla()</text></g><!--MD5=[b6c30708762b61ff1436eb707341f1f5]
class Baldosa--><g id="elem_Baldosa"><rect codeLine="21" fill="#F1F1F1" height="136.0469" id="Baldosa" rx="2.5" ry="2.5" style="stroke:#181818;stroke-width:0.5;" width="151" x="271" y="574"/><ellipse cx="316.75" cy="590" fill="#ADD1B2" rx="11" ry="11" style="stroke:#181818;stroke-width:1.0;"/><path d="M319.5156,585.875 Q319.6719,585.6563 319.8594,585.5469 Q320.0469,585.4375 320.2656,585.4375 Q320.6406,585.4375 320.875,585.7031 Q321.1094,585.9531 321.1094,586.5625 L321.1094,588.0156 Q321.1094,588.625 320.875,588.8906 Q320.6406,589.1563 320.2656,589.1563 Q319.9219,589.1563 319.7188,588.9531 Q319.5156,588.7656 319.4063,588.25 Q319.3594,587.8906 319.1719,587.7031 Q318.8438,587.3281 318.2344,587.1094 Q317.625,586.8906 317,586.8906 Q316.2344,586.8906 315.5938,587.2188 Q314.9688,587.5469 314.4688,588.2969 Q313.9844,589.0469 313.9844,590.0781 L313.9844,591.1719 Q313.9844,592.4063 314.875,593.2344 Q315.7656,594.0469 317.3594,594.0469 Q318.2969,594.0469 318.9531,593.7969 Q319.3438,593.6406 319.7656,593.2031 Q320.0313,592.9375 320.1719,592.8594 Q320.3281,592.7813 320.5313,592.7813 Q320.8594,592.7813 321.1094,593.0469 Q321.375,593.2969 321.375,593.6406 Q321.375,593.9844 321.0313,594.3906 Q320.5313,594.9688 319.7344,595.2969 Q318.6563,595.75 317.3594,595.75 Q315.8438,595.75 314.6406,595.125 Q313.6563,594.625 312.9688,593.5625 Q312.2813,592.4844 312.2813,591.2031 L312.2813,590.0469 Q312.2813,588.7188 312.8906,587.5781 Q313.5156,586.4219 314.6094,585.8125 Q315.7031,585.1875 316.9375,585.1875 Q317.6719,585.1875 318.3125,585.3594 Q318.9688,585.5156 319.5156,585.875 Z " fill="#000000"/><text fill="#000000" font-family="sans-serif" font-size="14" lengthAdjust="spacing" textLength="51" x="337.25" y="595.7285">Baldosa</text><line style="stroke:#181818;stroke-width:0.5;" x1="272" x2="421" y1="606" y2="606"/><rect fill="none" height="6" style="stroke:#C82930;stroke-width:1.0;" width="6" x="279" y="617.3047"/><text fill="#000000" font-family="sans-serif" font-size="14" lengthAdjust="spacing" textLength="66" x="291" y="624.5332">estado: int</text><line style="stroke:#181818;stroke-width:0.5;" x1="272" x2="421" y1="631.6094" y2="631.6094"/><ellipse cx="282" cy="645.9141" fill="#84BE84" rx="3" ry="3" style="stroke:#038048;stroke-width:1.0;"/><text fill="#000000" font-family="sans-serif" font-size="14" lengthAdjust="spacing" textLength="61" x="291" y="650.1426">Baldosa()</text><rect fill="#F24D5C" height="6" style="stroke:#C82930;stroke-width:1.0;" width="6" x="279" y="660.5234"/><text fill="#000000" font-family="sans-serif" font-size="14" lengthAdjust="spacing" textLength="125" x="291" y="667.752">int inicializaEstado()</text><ellipse cx="282" cy="681.1328" fill="#84BE84" rx="3" ry="3" style="stroke:#038048;stroke-width:1.0;"/><text fill="#000000" font-family="sans-serif" font-size="14" lengthAdjust="spacing" textLength="49" x="291" y="685.3613">int ver()</text><ellipse cx="282" cy="698.7422" fill="#84BE84" rx="3" ry="3" style="stroke:#038048;stroke-width:1.0;"/><text fill="#000000" font-family="sans-serif" font-size="14" lengthAdjust="spacing" textLength="59" x="291" y="702.9707">ensucia()</text></g><!--MD5=[911fe1357c24e8165700ac79875f9a94]
class Gato--><g id="elem_Gato"><rect codeLine="29" fill="#F1F1F1" height="136.0469" id="Gato" rx="2.5" ry="2.5" style="stroke:#181818;stroke-width:0.5;" width="229" x="7" y="574"/><ellipse cx="101.75" cy="590" fill="#ADD1B2" rx="11" ry="11" style="stroke:#181818;stroke-width:1.0;"/><path d="M104.5156,585.875 Q104.6719,585.6563 104.8594,585.5469 Q105.0469,585.4375 105.2656,585.4375 Q105.6406,585.4375 105.875,585.7031 Q106.1094,585.9531 106.1094,586.5625 L106.1094,588.0156 Q106.1094,588.625 105.875,588.8906 Q105.6406,589.1563 105.2656,589.1563 Q104.9219,589.1563 104.7188,588.9531 Q104.5156,588.7656 104.4063,588.25 Q104.3594,587.8906 104.1719,587.7031 Q103.8438,587.3281 103.2344,587.1094 Q102.625,586.8906 102,586.8906 Q101.2344,586.8906 100.5938,587.2188 Q99.9688,587.5469 99.4688,588.2969 Q98.9844,589.0469 98.9844,590.0781 L98.9844,591.1719 Q98.9844,592.4063 99.875,593.2344 Q100.7656,594.0469 102.3594,594.0469 Q103.2969,594.0469 103.9531,593.7969 Q104.3438,593.6406 104.7656,593.2031 Q105.0313,592.9375 105.1719,592.8594 Q105.3281,592.7813 105.5313,592.7813 Q105.8594,592.7813 106.1094,593.0469 Q106.375,593.2969 106.375,593.6406 Q106.375,593.9844 106.0313,594.3906 Q105.5313,594.9688 104.7344,595.2969 Q103.6563,595.75 102.3594,595.75 Q100.8438,595.75 99.6406,595.125 Q98.6563,594.625 97.9688,593.5625 Q97.2813,592.4844 97.2813,591.2031 L97.2813,590.0469 Q97.2813,588.7188 97.8906,587.5781 Q98.5156,586.4219 99.6094,585.8125 Q100.7031,585.1875 101.9375,585.1875 Q102.6719,585.1875 103.3125,585.3594 Q103.9688,585.5156 104.5156,585.875 Z " fill="#000000"/><text fill="#000000" font-family="sans-serif" font-size="14" lengthAdjust="spacing" textLength="31" x="122.25" y="595.7285">Gato</text><line style="stroke:#181818;stroke-width:0.5;" x1="8" x2="235" y1="606" y2="606"/><ellipse cx="18" cy="620.3047" fill="none" rx="3" ry="3" style="stroke:#038048;stroke-width:1.0;"/><text fill="#000000" font-family="sans-serif" font-size="14" lengthAdjust="spacing" textLength="83" x="27" y="624.5332">posicionX: int</text><ellipse cx="18" cy="637.9141" fill="none" rx="3" ry="3" style="stroke:#038048;stroke-width:1.0;"/><text fill="#000000" font-family="sans-serif" font-size="14" lengthAdjust="spacing" textLength="84" x="27" y="642.1426">posicionY: int</text><line style="stroke:#181818;stroke-width:0.5;" x1="8" x2="235" y1="649.2188" y2="649.2188"/><ellipse cx="18" cy="663.5234" fill="#84BE84" rx="3" ry="3" style="stroke:#038048;stroke-width:1.0;"/><text fill="#000000" font-family="sans-serif" font-size="14" lengthAdjust="spacing" textLength="180" x="27" y="667.752">Gato(habitacion: Habitacion)</text><ellipse cx="18" cy="681.1328" fill="#84BE84" rx="3" ry="3" style="stroke:#038048;stroke-width:1.0;"/><text fill="#000000" font-family="sans-serif" font-size="14" lengthAdjust="spacing" textLength="188" x="27" y="685.3613">mover(habitacion: Habitacion)</text><ellipse cx="18" cy="698.7422" fill="#84BE84" rx="3" ry="3" style="stroke:#038048;stroke-width:1.0;"/><text fill="#000000" font-family="sans-serif" font-size="14" lengthAdjust="spacing" textLength="203" x="27" y="702.9707">ensuciar(habitacion: Habitacion)</text></g><!--MD5=[6e08d2760e8ac984b4a01a79afafab0c]
reverse link Mundo to Habitacion--><g id="link_Mundo_Habitacion"><path codeLine="37" d="M198.2,154.77 C216.11,188.62 237.19,228.45 255.9,263.8 " fill="none" id="Mundo-backto-Habitacion" style="stroke:#181818;stroke-width:1.0;"/><polygon fill="#181818" points="192,143.07,191.2746,150.2445,197.6183,153.6735,198.3437,146.499,192,143.07" style="stroke:#181818;stroke-width:1.0;"/></g><!--MD5=[87ac95be48734aa89136229074de4b09]
reverse link Mundo to Gato--><g id="link_Mundo_Gato"><path codeLine="38" d="M151.53,156.22 C144.6,268.12 132.15,469.05 125.67,573.62 " fill="none" id="Mundo-backto-Gato" style="stroke:#181818;stroke-width:1.0;"/><polygon fill="#181818" points="152.35,143.03,147.9886,148.7727,151.6121,155.0073,155.9735,149.2646,152.35,143.03" style="stroke:#181818;stroke-width:1.0;"/></g><!--MD5=[5703bd999aab40a6a087586e2a908406]
reverse link Habitacion to Baldosa--><g id="link_Habitacion_Baldosa"><path codeLine="39" d="M321.07,466.38 C326.33,502.5 332.05,541.78 336.73,573.92 " fill="none" id="Habitacion-backto-Baldosa" style="stroke:#181818;stroke-width:1.0;"/><polygon fill="#181818" points="319.15,453.24,316.062,459.7565,320.8895,465.1133,323.9775,458.5968,319.15,453.24" style="stroke:#181818;stroke-width:1.0;"/></g><!--MD5=[30dbf26e3f3615d431fea8d8aefd02a4]
link Habitacion to Gato--><g id="link_Habitacion_Gato"><path codeLine="40" d="M244.23,453.24 C218.41,492.74 188.94,537.83 165.35,573.92 " fill="none" id="Habitacion-Gato" style="stroke:#181818;stroke-width:1.0;stroke-dasharray:7.0,7.0;"/></g><!--MD5=[ae52f1fba0fc5fcd397c47fdb55cdd55]
@startuml

class Mundo{
    - habitacion: Habitacion
    - gato: Gato 
    + Mundo()
    + empezar()
    + main()
}

class Habitacion {
    - baldosas[][]: Baldosa
    + largo: int
    + ancho: int
    +Habitacion(largo: int, ancho: int)
    +imprimir()
    +ensuciar(posicionX: int,posicionY: int)
    -imprimeLinea()
    -borraPantalla()
}

class Baldosa{
    - estado: int
    + Baldosa()
    - int inicializaEstado()
    + int ver()
    + ensucia()
}

class Gato{
    + posicionX: int
    + posicionY: int
    + Gato(habitacion: Habitacion)
    + mover(habitacion: Habitacion)
    + ensuciar(habitacion: Habitacion)
}

Mundo *-D- - Habitacion
Mundo *-R- - - Gato
Habitacion *-D- - Baldosa 
Habitacion ... Gato

@enduml

PlantUML version 1.2022.7(Mon Aug 22 19:01:30 CEST 2022)
(GPL source distribution)
Java Runtime: Java(TM) SE Runtime Environment
JVM: Java HotSpot(TM) 64-Bit Server VM
Default Encoding: UTF-8
Language: es
Country: ES
--></g></svg>