<?xml version="1.0" encoding="UTF-8" standalone="no"?><svg xmlns="http://www.w3.org/2000/svg" xmlns:xlink="http://www.w3.org/1999/xlink" contentStyleType="text/css" height="629px" preserveAspectRatio="none" style="width:406px;height:629px;background:#FFFFFF;" version="1.1" viewBox="0 0 406 629" width="406px" zoomAndPan="magnify"><defs/><g><!--MD5=[919386ce46a6a5a7c71af782f732246a]
class Mundo--><g id="elem_Mundo"><rect codeLine="2" fill="#F1F1F1" height="118.4375" id="Mundo" rx="2.5" ry="2.5" style="stroke:#181818;stroke-width:0.5;" width="165" x="107" y="7"/><ellipse cx="163.75" cy="23" fill="#ADD1B2" rx="11" ry="11" style="stroke:#181818;stroke-width:1.0;"/><path d="M166.5156,18.875 Q166.6719,18.6563 166.8594,18.5469 Q167.0469,18.4375 167.2656,18.4375 Q167.6406,18.4375 167.875,18.6953 Q168.1094,18.9531 168.1094,19.5625 L168.1094,21.0156 Q168.1094,21.625 167.875,21.8906 Q167.6406,22.1563 167.2656,22.1563 Q166.9219,22.1563 166.7188,21.9531 Q166.5156,21.7656 166.4063,21.25 Q166.3594,20.8906 166.1719,20.7031 Q165.8438,20.3281 165.2344,20.1094 Q164.625,19.8906 164,19.8906 Q163.2344,19.8906 162.6016,20.2188 Q161.9688,20.5469 161.4766,21.2969 Q160.9844,22.0469 160.9844,23.0781 L160.9844,24.1719 Q160.9844,25.4063 161.875,26.2266 Q162.7656,27.0469 164.3594,27.0469 Q165.2969,27.0469 165.9531,26.7969 Q166.3438,26.6406 166.7656,26.2031 Q167.0313,25.9375 167.1797,25.8594 Q167.3281,25.7813 167.5313,25.7813 Q167.8594,25.7813 168.1172,26.0391 Q168.375,26.2969 168.375,26.6406 Q168.375,26.9844 168.0313,27.3906 Q167.5313,27.9688 166.7344,28.2969 Q165.6563,28.75 164.3594,28.75 Q162.8438,28.75 161.6406,28.125 Q160.6563,27.625 159.9688,26.5547 Q159.2813,25.4844 159.2813,24.2031 L159.2813,23.0469 Q159.2813,21.7188 159.8984,20.5703 Q160.5156,19.4219 161.6094,18.8047 Q162.7031,18.1875 163.9375,18.1875 Q164.6719,18.1875 165.3203,18.3516 Q165.9688,18.5156 166.5156,18.875 Z " fill="#000000"/><text fill="#000000" font-family="sans-serif" font-size="14" lengthAdjust="spacing" textLength="43" x="184.25" y="28.7285">Mundo</text><line style="stroke:#181818;stroke-width:0.5;" x1="108" x2="271" y1="39" y2="39"/><rect fill="none" height="6" style="stroke:#C82930;stroke-width:1.0;" width="6" x="115" y="50.3047"/><text fill="#000000" font-family="sans-serif" font-size="14" lengthAdjust="spacing" textLength="139" x="127" y="57.5332">habitacion: Habitacion</text><line style="stroke:#181818;stroke-width:0.5;" x1="108" x2="271" y1="64.6094" y2="64.6094"/><ellipse cx="118" cy="78.9141" fill="#84BE84" rx="3" ry="3" style="stroke:#038048;stroke-width:1.0;"/><text fill="#000000" font-family="sans-serif" font-size="14" lengthAdjust="spacing" textLength="53" x="127" y="83.1426">Mundo()</text><ellipse cx="118" cy="96.5234" fill="#84BE84" rx="3" ry="3" style="stroke:#038048;stroke-width:1.0;"/><text fill="#000000" font-family="sans-serif" font-size="14" lengthAdjust="spacing" textLength="64" x="127" y="100.752">empezar()</text><ellipse cx="118" cy="114.1328" fill="#84BE84" rx="3" ry="3" style="stroke:#038048;stroke-width:1.0;"/><text fill="#000000" font-family="sans-serif" font-size="14" lengthAdjust="spacing" textLength="40" x="127" y="118.3613">main()</text></g><!--MD5=[90b9a4c9b73c006688efe43144d747a1]
class Habitacion--><g id="elem_Habitacion"><rect codeLine="9" fill="#F1F1F1" height="224.0938" id="Habitacion" rx="2.5" ry="2.5" style="stroke:#181818;stroke-width:0.5;" width="227" x="76" y="185"/><ellipse cx="152.25" cy="201" fill="#ADD1B2" rx="11" ry="11" style="stroke:#181818;stroke-width:1.0;"/><path d="M155.0156,196.875 Q155.1719,196.6563 155.3594,196.5469 Q155.5469,196.4375 155.7656,196.4375 Q156.1406,196.4375 156.375,196.6953 Q156.6094,196.9531 156.6094,197.5625 L156.6094,199.0156 Q156.6094,199.625 156.375,199.8906 Q156.1406,200.1563 155.7656,200.1563 Q155.4219,200.1563 155.2188,199.9531 Q155.0156,199.7656 154.9063,199.25 Q154.8594,198.8906 154.6719,198.7031 Q154.3438,198.3281 153.7344,198.1094 Q153.125,197.8906 152.5,197.8906 Q151.7344,197.8906 151.1016,198.2188 Q150.4688,198.5469 149.9766,199.2969 Q149.4844,200.0469 149.4844,201.0781 L149.4844,202.1719 Q149.4844,203.4063 150.375,204.2266 Q151.2656,205.0469 152.8594,205.0469 Q153.7969,205.0469 154.4531,204.7969 Q154.8438,204.6406 155.2656,204.2031 Q155.5313,203.9375 155.6797,203.8594 Q155.8281,203.7813 156.0313,203.7813 Q156.3594,203.7813 156.6172,204.0391 Q156.875,204.2969 156.875,204.6406 Q156.875,204.9844 156.5313,205.3906 Q156.0313,205.9688 155.2344,206.2969 Q154.1563,206.75 152.8594,206.75 Q151.3438,206.75 150.1406,206.125 Q149.1563,205.625 148.4688,204.5547 Q147.7813,203.4844 147.7813,202.2031 L147.7813,201.0469 Q147.7813,199.7188 148.3984,198.5703 Q149.0156,197.4219 150.1094,196.8047 Q151.2031,196.1875 152.4375,196.1875 Q153.1719,196.1875 153.8203,196.3516 Q154.4688,196.5156 155.0156,196.875 Z " fill="#000000"/><text fill="#000000" font-family="sans-serif" font-size="14" lengthAdjust="spacing" textLength="66" x="172.75" y="206.7285">Habitacion</text><line style="stroke:#181818;stroke-width:0.5;" x1="77" x2="302" y1="217" y2="217"/><rect fill="none" height="6" style="stroke:#C82930;stroke-width:1.0;" width="6" x="84" y="228.3047"/><text fill="#000000" font-family="sans-serif" font-size="14" lengthAdjust="spacing" textLength="132" x="96" y="235.5332">baldosas[][]: Baldosa</text><rect fill="none" height="6" style="stroke:#C82930;stroke-width:1.0;" width="6" x="84" y="245.9141"/><text fill="#000000" font-family="sans-serif" font-size="14" lengthAdjust="spacing" textLength="82" x="96" y="253.1426">gatos[]: Gato</text><ellipse cx="87" cy="266.5234" fill="none" rx="3" ry="3" style="stroke:#038048;stroke-width:1.0;"/><text fill="#000000" font-family="sans-serif" font-size="14" lengthAdjust="spacing" textLength="55" x="96" y="270.752">largo: int</text><ellipse cx="87" cy="284.1328" fill="none" rx="3" ry="3" style="stroke:#038048;stroke-width:1.0;"/><text fill="#000000" font-family="sans-serif" font-size="14" lengthAdjust="spacing" textLength="62" x="96" y="288.3613">ancho: int</text><line style="stroke:#181818;stroke-width:0.5;" x1="77" x2="302" y1="295.4375" y2="295.4375"/><ellipse cx="87" cy="309.7422" fill="#84BE84" rx="3" ry="3" style="stroke:#038048;stroke-width:1.0;"/><text fill="#000000" font-family="sans-serif" font-size="14" lengthAdjust="spacing" textLength="201" x="96" y="313.9707">Habitacion(largo: int, ancho: int)</text><ellipse cx="87" cy="327.3516" fill="#84BE84" rx="3" ry="3" style="stroke:#038048;stroke-width:1.0;"/><text fill="#000000" font-family="sans-serif" font-size="14" lengthAdjust="spacing" textLength="77" x="96" y="331.5801">pasarCiclo()</text><rect fill="#F24D5C" height="6" style="stroke:#C82930;stroke-width:1.0;" width="6" x="84" y="341.9609"/><text fill="#000000" font-family="sans-serif" font-size="14" lengthAdjust="spacing" textLength="59" x="96" y="349.1895">imprimir()</text><rect fill="#F24D5C" height="6" style="stroke:#C82930;stroke-width:1.0;" width="6" x="84" y="359.5703"/><text fill="#000000" font-family="sans-serif" font-size="14" lengthAdjust="spacing" textLength="94" x="96" y="366.7988">imprimeLinea()</text><rect fill="#F24D5C" height="6" style="stroke:#C82930;stroke-width:1.0;" width="6" x="84" y="377.1797"/><text fill="#000000" font-family="sans-serif" font-size="14" lengthAdjust="spacing" textLength="125" x="96" y="384.4082">imprimeHabitacion()</text><rect fill="#F24D5C" height="6" style="stroke:#C82930;stroke-width:1.0;" width="6" x="84" y="394.7891"/><text fill="#000000" font-family="sans-serif" font-size="14" lengthAdjust="spacing" textLength="95" x="96" y="402.0176">borraPantalla()</text></g><!--MD5=[b6c30708762b61ff1436eb707341f1f5]
class Baldosa--><g id="elem_Baldosa"><rect codeLine="22" fill="#F1F1F1" height="136.0469" id="Baldosa" rx="2.5" ry="2.5" style="stroke:#181818;stroke-width:0.5;" width="151" x="7" y="478"/><ellipse cx="52.75" cy="494" fill="#ADD1B2" rx="11" ry="11" style="stroke:#181818;stroke-width:1.0;"/><path d="M55.5156,489.875 Q55.6719,489.6563 55.8594,489.5469 Q56.0469,489.4375 56.2656,489.4375 Q56.6406,489.4375 56.875,489.6953 Q57.1094,489.9531 57.1094,490.5625 L57.1094,492.0156 Q57.1094,492.625 56.875,492.8906 Q56.6406,493.1563 56.2656,493.1563 Q55.9219,493.1563 55.7188,492.9531 Q55.5156,492.7656 55.4063,492.25 Q55.3594,491.8906 55.1719,491.7031 Q54.8438,491.3281 54.2344,491.1094 Q53.625,490.8906 53,490.8906 Q52.2344,490.8906 51.6016,491.2188 Q50.9688,491.5469 50.4766,492.2969 Q49.9844,493.0469 49.9844,494.0781 L49.9844,495.1719 Q49.9844,496.4063 50.875,497.2266 Q51.7656,498.0469 53.3594,498.0469 Q54.2969,498.0469 54.9531,497.7969 Q55.3438,497.6406 55.7656,497.2031 Q56.0313,496.9375 56.1797,496.8594 Q56.3281,496.7813 56.5313,496.7813 Q56.8594,496.7813 57.1172,497.0391 Q57.375,497.2969 57.375,497.6406 Q57.375,497.9844 57.0313,498.3906 Q56.5313,498.9688 55.7344,499.2969 Q54.6563,499.75 53.3594,499.75 Q51.8438,499.75 50.6406,499.125 Q49.6563,498.625 48.9688,497.5547 Q48.2813,496.4844 48.2813,495.2031 L48.2813,494.0469 Q48.2813,492.7188 48.8984,491.5703 Q49.5156,490.4219 50.6094,489.8047 Q51.7031,489.1875 52.9375,489.1875 Q53.6719,489.1875 54.3203,489.3516 Q54.9688,489.5156 55.5156,489.875 Z " fill="#000000"/><text fill="#000000" font-family="sans-serif" font-size="14" lengthAdjust="spacing" textLength="51" x="73.25" y="499.7285">Baldosa</text><line style="stroke:#181818;stroke-width:0.5;" x1="8" x2="157" y1="510" y2="510"/><rect fill="none" height="6" style="stroke:#C82930;stroke-width:1.0;" width="6" x="15" y="521.3047"/><text fill="#000000" font-family="sans-serif" font-size="14" lengthAdjust="spacing" textLength="66" x="27" y="528.5332">estado: int</text><line style="stroke:#181818;stroke-width:0.5;" x1="8" x2="157" y1="535.6094" y2="535.6094"/><ellipse cx="18" cy="549.9141" fill="#84BE84" rx="3" ry="3" style="stroke:#038048;stroke-width:1.0;"/><text fill="#000000" font-family="sans-serif" font-size="14" lengthAdjust="spacing" textLength="61" x="27" y="554.1426">Baldosa()</text><rect fill="#F24D5C" height="6" style="stroke:#C82930;stroke-width:1.0;" width="6" x="15" y="564.5234"/><text fill="#000000" font-family="sans-serif" font-size="14" lengthAdjust="spacing" textLength="125" x="27" y="571.752">int inicializaEstado()</text><ellipse cx="18" cy="585.1328" fill="#84BE84" rx="3" ry="3" style="stroke:#038048;stroke-width:1.0;"/><text fill="#000000" font-family="sans-serif" font-size="14" lengthAdjust="spacing" textLength="49" x="27" y="589.3613">int ver()</text><ellipse cx="18" cy="602.7422" fill="#84BE84" rx="3" ry="3" style="stroke:#038048;stroke-width:1.0;"/><text fill="#000000" font-family="sans-serif" font-size="14" lengthAdjust="spacing" textLength="64" x="27" y="606.9707">ensuciar()</text></g><!--MD5=[911fe1357c24e8165700ac79875f9a94]
class Gato--><g id="elem_Gato"><rect codeLine="30" fill="#F1F1F1" height="153.6563" id="Gato" rx="2.5" ry="2.5" style="stroke:#181818;stroke-width:0.5;" width="206" x="193.5" y="469"/><ellipse cx="276.75" cy="485" fill="#ADD1B2" rx="11" ry="11" style="stroke:#181818;stroke-width:1.0;"/><path d="M279.5156,480.875 Q279.6719,480.6563 279.8594,480.5469 Q280.0469,480.4375 280.2656,480.4375 Q280.6406,480.4375 280.875,480.6953 Q281.1094,480.9531 281.1094,481.5625 L281.1094,483.0156 Q281.1094,483.625 280.875,483.8906 Q280.6406,484.1563 280.2656,484.1563 Q279.9219,484.1563 279.7188,483.9531 Q279.5156,483.7656 279.4063,483.25 Q279.3594,482.8906 279.1719,482.7031 Q278.8438,482.3281 278.2344,482.1094 Q277.625,481.8906 277,481.8906 Q276.2344,481.8906 275.6016,482.2188 Q274.9688,482.5469 274.4766,483.2969 Q273.9844,484.0469 273.9844,485.0781 L273.9844,486.1719 Q273.9844,487.4063 274.875,488.2266 Q275.7656,489.0469 277.3594,489.0469 Q278.2969,489.0469 278.9531,488.7969 Q279.3438,488.6406 279.7656,488.2031 Q280.0313,487.9375 280.1797,487.8594 Q280.3281,487.7813 280.5313,487.7813 Q280.8594,487.7813 281.1172,488.0391 Q281.375,488.2969 281.375,488.6406 Q281.375,488.9844 281.0313,489.3906 Q280.5313,489.9688 279.7344,490.2969 Q278.6563,490.75 277.3594,490.75 Q275.8438,490.75 274.6406,490.125 Q273.6563,489.625 272.9688,488.5547 Q272.2813,487.4844 272.2813,486.2031 L272.2813,485.0469 Q272.2813,483.7188 272.8984,482.5703 Q273.5156,481.4219 274.6094,480.8047 Q275.7031,480.1875 276.9375,480.1875 Q277.6719,480.1875 278.3203,480.3516 Q278.9688,480.5156 279.5156,480.875 Z " fill="#000000"/><text fill="#000000" font-family="sans-serif" font-size="14" lengthAdjust="spacing" textLength="31" x="297.25" y="490.7285">Gato</text><line style="stroke:#181818;stroke-width:0.5;" x1="194.5" x2="398.5" y1="501" y2="501"/><ellipse cx="204.5" cy="515.3047" fill="none" rx="3" ry="3" style="stroke:#038048;stroke-width:1.0;"/><text fill="#000000" font-family="sans-serif" font-size="14" lengthAdjust="spacing" textLength="83" x="213.5" y="519.5332">posicionX: int</text><ellipse cx="204.5" cy="532.9141" fill="none" rx="3" ry="3" style="stroke:#038048;stroke-width:1.0;"/><text fill="#000000" font-family="sans-serif" font-size="14" lengthAdjust="spacing" textLength="84" x="213.5" y="537.1426">posicionY: int</text><ellipse cx="204.5" cy="550.5234" fill="none" rx="3" ry="3" style="stroke:#038048;stroke-width:1.0;"/><text fill="#000000" font-family="sans-serif" font-size="14" lengthAdjust="spacing" textLength="139" x="213.5" y="554.752">habitacion: Habitacion</text><line style="stroke:#181818;stroke-width:0.5;" x1="194.5" x2="398.5" y1="561.8281" y2="561.8281"/><ellipse cx="204.5" cy="576.1328" fill="#84BE84" rx="3" ry="3" style="stroke:#038048;stroke-width:1.0;"/><text fill="#000000" font-family="sans-serif" font-size="14" lengthAdjust="spacing" textLength="180" x="213.5" y="580.3613">Gato(habitacion: Habitacion)</text><ellipse cx="204.5" cy="593.7422" fill="#84BE84" rx="3" ry="3" style="stroke:#038048;stroke-width:1.0;"/><text fill="#000000" font-family="sans-serif" font-size="14" lengthAdjust="spacing" textLength="49" x="213.5" y="597.9707">mover()</text><ellipse cx="204.5" cy="611.3516" fill="#84BE84" rx="3" ry="3" style="stroke:#038048;stroke-width:1.0;"/><text fill="#000000" font-family="sans-serif" font-size="14" lengthAdjust="spacing" textLength="169" x="213.5" y="615.5801">ensuciar(Baldosa baldosa)</text></g><!--MD5=[6e08d2760e8ac984b4a01a79afafab0c]
reverse link Mundo to Habitacion--><g id="link_Mundo_Habitacion"><path codeLine="39" d="M189.5,138.33 C189.5,153.13 189.5,169.06 189.5,184.91 " fill="none" id="Mundo-backto-Habitacion" style="stroke:#181818;stroke-width:1.0;"/><polygon fill="#181818" points="189.5,125.08,185.5,131.08,189.5,137.08,193.5,131.08,189.5,125.08" style="stroke:#181818;stroke-width:1.0;"/></g><!--MD5=[5703bd999aab40a6a087586e2a908406]
reverse link Habitacion to Baldosa--><g id="link_Habitacion_Baldosa"><path codeLine="40" d="M136.07,421.33 C127.63,440.83 119.18,460.32 111.58,477.88 " fill="none" id="Habitacion-backto-Baldosa" style="stroke:#181818;stroke-width:1.0;"/><polygon fill="#181818" points="141.32,409.22,135.2674,413.14,136.558,420.2347,142.6105,416.3147,141.32,409.22" style="stroke:#181818;stroke-width:1.0;"/></g><!--MD5=[fe6b698aea5c86563eb336b2a86d9579]
reverse link Habitacion to Gato--><g id="link_Habitacion_Gato"><path codeLine="41" d="M243,421.5 C249.97,437.59 256.94,453.68 263.44,468.68 " fill="none" id="Habitacion-backto-Gato" style="stroke:#181818;stroke-width:1.0;"/><polygon fill="#181818" points="237.68,409.22,236.3895,416.3147,242.442,420.2347,243.7326,413.14,237.68,409.22" style="stroke:#181818;stroke-width:1.0;"/></g><!--MD5=[c847eacfba6c16fc43470b620fec2e8e]
reverse link Baldosa to Gato--><g id="link_Baldosa_Gato"><path codeLine="42" d="M163.37,546 C173.34,546 183.31,546 193.28,546 " fill="none" id="Baldosa-backto-Gato" style="stroke:#181818;stroke-width:1.0;stroke-dasharray:7.0,7.0;"/><polygon fill="#181818" points="158.15,546,167.15,550,163.15,546,167.15,542,158.15,546" style="stroke:#181818;stroke-width:1.0;"/></g><!--MD5=[895f3af8243c99bec03a703b896262a7]
@startuml

class Mundo{
    - habitacion: Habitacion
    + Mundo()
    + empezar()
    + main()
}

class Habitacion {
    - baldosas[][]: Baldosa
    - gatos[]: Gato 
    + largo: int
    + ancho: int
    + Habitacion(largo: int, ancho: int)
    + pasarCiclo()
    - imprimir()
    - imprimeLinea()
    - imprimeHabitacion()
    - borraPantalla()
}

class Baldosa{
    - estado: int
    + Baldosa()
    - int inicializaEstado()
    + int ver()
    + ensuciar()
}

class Gato{
    + posicionX: int
    + posicionY: int
    + habitacion: Habitacion
    + Gato(habitacion: Habitacion)
    + mover()
    + ensuciar(Baldosa baldosa)
}

Mundo *-D- Habitacion
Habitacion *-D- Baldosa 
Habitacion *- - Gato
Gato .l.> Baldosa

@enduml

PlantUML version 1.2022.7(Mon Aug 22 19:01:30 CEST 2022)
(GPL source distribution)
Java Runtime: Java(TM) SE Runtime Environment
JVM: Java HotSpot(TM) 64-Bit Server VM
Default Encoding: Cp1252
Language: en
Country: US
--></g></svg>