<?xml version="1.0" encoding="UTF-8" standalone="no"?><svg xmlns="http://www.w3.org/2000/svg" xmlns:xlink="http://www.w3.org/1999/xlink" contentStyleType="text/css" height="823px" preserveAspectRatio="none" style="width:428px;height:823px;background:#FFFFFF;" version="1.1" viewBox="0 0 428 823" width="428px" zoomAndPan="magnify"><defs/><g><!--MD5=[919386ce46a6a5a7c71af782f732246a]
class Mundo--><g id="elem_Mundo"><rect codeLine="2" fill="#F1F1F1" height="136.0469" id="Mundo" rx="2.5" ry="2.5" style="stroke:#181818;stroke-width:0.5;" width="188" x="102" y="7"/><ellipse cx="170.25" cy="23" fill="#ADD1B2" rx="11" ry="11" style="stroke:#181818;stroke-width:1.0;"/><path d="M173.0156,18.875 Q173.1719,18.6563 173.3594,18.5469 Q173.5469,18.4375 173.7656,18.4375 Q174.1406,18.4375 174.375,18.7031 Q174.6094,18.9531 174.6094,19.5625 L174.6094,21.0156 Q174.6094,21.625 174.375,21.8906 Q174.1406,22.1563 173.7656,22.1563 Q173.4219,22.1563 173.2188,21.9531 Q173.0156,21.7656 172.9063,21.25 Q172.8594,20.8906 172.6719,20.7031 Q172.3438,20.3281 171.7344,20.1094 Q171.125,19.8906 170.5,19.8906 Q169.7344,19.8906 169.0938,20.2188 Q168.4688,20.5469 167.9688,21.2969 Q167.4844,22.0469 167.4844,23.0781 L167.4844,24.1719 Q167.4844,25.4063 168.375,26.2344 Q169.2656,27.0469 170.8594,27.0469 Q171.7969,27.0469 172.4531,26.7969 Q172.8438,26.6406 173.2656,26.2031 Q173.5313,25.9375 173.6719,25.8594 Q173.8281,25.7813 174.0313,25.7813 Q174.3594,25.7813 174.6094,26.0469 Q174.875,26.2969 174.875,26.6406 Q174.875,26.9844 174.5313,27.3906 Q174.0313,27.9688 173.2344,28.2969 Q172.1563,28.75 170.8594,28.75 Q169.3438,28.75 168.1406,28.125 Q167.1563,27.625 166.4688,26.5625 Q165.7813,25.4844 165.7813,24.2031 L165.7813,23.0469 Q165.7813,21.7188 166.3906,20.5781 Q167.0156,19.4219 168.1094,18.8125 Q169.2031,18.1875 170.4375,18.1875 Q171.1719,18.1875 171.8125,18.3594 Q172.4688,18.5156 173.0156,18.875 Z " fill="#000000"/><text fill="#000000" font-family="sans-serif" font-size="14" lengthAdjust="spacing" textLength="43" x="190.75" y="28.7285">Mundo</text><line style="stroke:#181818;stroke-width:0.5;" x1="103" x2="289" y1="39" y2="39"/><ellipse cx="113" cy="53.3047" fill="none" rx="3" ry="3" style="stroke:#038048;stroke-width:1.0;"/><text fill="#000000" font-family="sans-serif" font-size="14" lengthAdjust="spacing" textLength="162" x="122" y="57.5332">Habitacion[]: habitaciones</text><rect fill="none" height="6" style="stroke:#C82930;stroke-width:1.0;" width="6" x="110" y="67.9141"/><text fill="#000000" font-family="sans-serif" font-size="14" lengthAdjust="spacing" textLength="59" x="122" y="75.1426">continuar</text><line style="stroke:#181818;stroke-width:0.5;" x1="103" x2="289" y1="82.2188" y2="82.2188"/><ellipse cx="113" cy="96.5234" fill="#84BE84" rx="3" ry="3" style="stroke:#038048;stroke-width:1.0;"/><text fill="#000000" font-family="sans-serif" font-size="14" lengthAdjust="spacing" textLength="53" x="122" y="100.752">Mundo()</text><rect fill="#F24D5C" height="6" style="stroke:#C82930;stroke-width:1.0;" width="6" x="110" y="111.1328"/><text fill="#000000" font-family="sans-serif" font-size="14" lengthAdjust="spacing" textLength="90" x="122" y="118.3613">iniciarMundo()</text><ellipse cx="113" cy="131.7422" fill="#84BE84" rx="3" ry="3" style="stroke:#038048;stroke-width:1.0;"/><text fill="#000000" font-family="sans-serif" font-size="14" lengthAdjust="spacing" textLength="40" x="122" y="135.9707">main()</text></g><!--MD5=[90b9a4c9b73c006688efe43144d747a1]
class Habitacion--><g id="elem_Habitacion"><rect codeLine="10" fill="#F1F1F1" height="294.5313" id="Habitacion" rx="2.5" ry="2.5" style="stroke:#181818;stroke-width:0.5;" width="356" x="18" y="264"/><ellipse cx="158.75" cy="280" fill="#ADD1B2" rx="11" ry="11" style="stroke:#181818;stroke-width:1.0;"/><path d="M161.5156,275.875 Q161.6719,275.6563 161.8594,275.5469 Q162.0469,275.4375 162.2656,275.4375 Q162.6406,275.4375 162.875,275.7031 Q163.1094,275.9531 163.1094,276.5625 L163.1094,278.0156 Q163.1094,278.625 162.875,278.8906 Q162.6406,279.1563 162.2656,279.1563 Q161.9219,279.1563 161.7188,278.9531 Q161.5156,278.7656 161.4063,278.25 Q161.3594,277.8906 161.1719,277.7031 Q160.8438,277.3281 160.2344,277.1094 Q159.625,276.8906 159,276.8906 Q158.2344,276.8906 157.5938,277.2188 Q156.9688,277.5469 156.4688,278.2969 Q155.9844,279.0469 155.9844,280.0781 L155.9844,281.1719 Q155.9844,282.4063 156.875,283.2344 Q157.7656,284.0469 159.3594,284.0469 Q160.2969,284.0469 160.9531,283.7969 Q161.3438,283.6406 161.7656,283.2031 Q162.0313,282.9375 162.1719,282.8594 Q162.3281,282.7813 162.5313,282.7813 Q162.8594,282.7813 163.1094,283.0469 Q163.375,283.2969 163.375,283.6406 Q163.375,283.9844 163.0313,284.3906 Q162.5313,284.9688 161.7344,285.2969 Q160.6563,285.75 159.3594,285.75 Q157.8438,285.75 156.6406,285.125 Q155.6563,284.625 154.9688,283.5625 Q154.2813,282.4844 154.2813,281.2031 L154.2813,280.0469 Q154.2813,278.7188 154.8906,277.5781 Q155.5156,276.4219 156.6094,275.8125 Q157.7031,275.1875 158.9375,275.1875 Q159.6719,275.1875 160.3125,275.3594 Q160.9688,275.5156 161.5156,275.875 Z " fill="#000000"/><text fill="#000000" font-family="sans-serif" font-size="14" lengthAdjust="spacing" textLength="66" x="179.25" y="285.7285">Habitacion</text><line style="stroke:#181818;stroke-width:0.5;" x1="19" x2="373" y1="296" y2="296"/><rect fill="none" height="6" style="stroke:#C82930;stroke-width:1.0;" width="6" x="26" y="307.3047"/><text fill="#000000" font-family="sans-serif" font-size="14" lengthAdjust="spacing" textLength="132" x="38" y="314.5332">Baldosa[][]: baldosas</text><rect fill="none" height="6" style="stroke:#C82930;stroke-width:1.0;" width="6" x="26" y="324.9141"/><text fill="#000000" font-family="sans-serif" font-size="14" lengthAdjust="spacing" textLength="78" x="38" y="332.1426">Gato[]: Gato</text><ellipse cx="29" cy="345.5234" fill="none" rx="3" ry="3" style="stroke:#038048;stroke-width:1.0;"/><text fill="#000000" font-family="sans-serif" font-size="14" lengthAdjust="spacing" textLength="58" x="38" y="349.752">int ancho</text><ellipse cx="29" cy="363.1328" fill="none" rx="3" ry="3" style="stroke:#038048;stroke-width:1.0;"/><text fill="#000000" font-family="sans-serif" font-size="14" lengthAdjust="spacing" textLength="51" x="38" y="367.3613">int largo</text><line style="stroke:#181818;stroke-width:0.5;" x1="19" x2="373" y1="374.4375" y2="374.4375"/><ellipse cx="29" cy="388.7422" fill="#84BE84" rx="3" ry="3" style="stroke:#038048;stroke-width:1.0;"/><text fill="#000000" font-family="sans-serif" font-size="14" lengthAdjust="spacing" textLength="330" x="38" y="392.9707">Habitacion(int ancho, int largo, int cantidadDeGatos)</text><ellipse cx="29" cy="406.3516" fill="#84BE84" rx="3" ry="3" style="stroke:#038048;stroke-width:1.0;"/><text fill="#000000" font-family="sans-serif" font-size="14" lengthAdjust="spacing" textLength="93" x="38" y="410.5801">pasarTiempo()</text><rect fill="#F24D5C" height="6" style="stroke:#C82930;stroke-width:1.0;" width="6" x="26" y="420.9609"/><text fill="#000000" font-family="sans-serif" font-size="14" lengthAdjust="spacing" textLength="125" x="38" y="428.1895">imprimirHabitacion()</text><rect fill="#F24D5C" height="6" style="stroke:#C82930;stroke-width:1.0;" width="6" x="26" y="438.5703"/><text fill="#000000" font-family="sans-serif" font-size="14" lengthAdjust="spacing" textLength="64" x="38" y="445.7988">hayGato()</text><rect fill="#F24D5C" height="6" style="stroke:#C82930;stroke-width:1.0;" width="6" x="26" y="456.1797"/><text fill="#000000" font-family="sans-serif" font-size="14" lengthAdjust="spacing" textLength="59" x="38" y="463.4082">parsear()</text><rect fill="#F24D5C" height="6" style="stroke:#C82930;stroke-width:1.0;" width="6" x="26" y="473.7891"/><text fill="#000000" font-family="sans-serif" font-size="14" lengthAdjust="spacing" textLength="81" x="38" y="481.0176">printBorder()</text><rect fill="#F24D5C" height="6" style="stroke:#C82930;stroke-width:1.0;" width="6" x="26" y="491.3984"/><text fill="#000000" font-family="sans-serif" font-size="14" lengthAdjust="spacing" textLength="102" x="38" y="498.627">limpiarPantalla()</text><ellipse cx="29" cy="512.0078" fill="#84BE84" rx="3" ry="3" style="stroke:#038048;stroke-width:1.0;"/><text fill="#000000" font-family="sans-serif" font-size="14" lengthAdjust="spacing" textLength="282" x="38" y="516.2363">ensuciarBaldosa(int posicionX, int posicionY)</text><ellipse cx="29" cy="529.6172" fill="#84BE84" rx="3" ry="3" style="stroke:#038048;stroke-width:1.0;"/><text fill="#000000" font-family="sans-serif" font-size="14" lengthAdjust="spacing" textLength="144" x="38" y="533.8457">cambiarPosicionGato()</text><rect fill="#F24D5C" height="6" style="stroke:#C82930;stroke-width:1.0;" width="6" x="26" y="544.2266"/><text fill="#000000" font-family="sans-serif" font-size="14" lengthAdjust="spacing" textLength="128" x="38" y="551.4551">posicionInicialGato()</text></g><!--MD5=[b6c30708762b61ff1436eb707341f1f5]
class Baldosa--><g id="elem_Baldosa"><rect codeLine="27" fill="#F1F1F1" height="136.0469" id="Baldosa" rx="2.5" ry="2.5" style="stroke:#181818;stroke-width:0.5;" width="154" x="7" y="680"/><ellipse cx="54.25" cy="696" fill="#ADD1B2" rx="11" ry="11" style="stroke:#181818;stroke-width:1.0;"/><path d="M57.0156,691.875 Q57.1719,691.6563 57.3594,691.5469 Q57.5469,691.4375 57.7656,691.4375 Q58.1406,691.4375 58.375,691.7031 Q58.6094,691.9531 58.6094,692.5625 L58.6094,694.0156 Q58.6094,694.625 58.375,694.8906 Q58.1406,695.1563 57.7656,695.1563 Q57.4219,695.1563 57.2188,694.9531 Q57.0156,694.7656 56.9063,694.25 Q56.8594,693.8906 56.6719,693.7031 Q56.3438,693.3281 55.7344,693.1094 Q55.125,692.8906 54.5,692.8906 Q53.7344,692.8906 53.0938,693.2188 Q52.4688,693.5469 51.9688,694.2969 Q51.4844,695.0469 51.4844,696.0781 L51.4844,697.1719 Q51.4844,698.4063 52.375,699.2344 Q53.2656,700.0469 54.8594,700.0469 Q55.7969,700.0469 56.4531,699.7969 Q56.8438,699.6406 57.2656,699.2031 Q57.5313,698.9375 57.6719,698.8594 Q57.8281,698.7813 58.0313,698.7813 Q58.3594,698.7813 58.6094,699.0469 Q58.875,699.2969 58.875,699.6406 Q58.875,699.9844 58.5313,700.3906 Q58.0313,700.9688 57.2344,701.2969 Q56.1563,701.75 54.8594,701.75 Q53.3438,701.75 52.1406,701.125 Q51.1563,700.625 50.4688,699.5625 Q49.7813,698.4844 49.7813,697.2031 L49.7813,696.0469 Q49.7813,694.7188 50.3906,693.5781 Q51.0156,692.4219 52.1094,691.8125 Q53.2031,691.1875 54.4375,691.1875 Q55.1719,691.1875 55.8125,691.3594 Q56.4688,691.5156 57.0156,691.875 Z " fill="#000000"/><text fill="#000000" font-family="sans-serif" font-size="14" lengthAdjust="spacing" textLength="51" x="74.75" y="701.7285">Baldosa</text><line style="stroke:#181818;stroke-width:0.5;" x1="8" x2="160" y1="712" y2="712"/><ellipse cx="18" cy="726.3047" fill="none" rx="3" ry="3" style="stroke:#038048;stroke-width:1.0;"/><text fill="#000000" font-family="sans-serif" font-size="14" lengthAdjust="spacing" textLength="62" x="27" y="730.5332">int estado</text><line style="stroke:#181818;stroke-width:0.5;" x1="8" x2="160" y1="737.6094" y2="737.6094"/><ellipse cx="18" cy="751.9141" fill="#84BE84" rx="3" ry="3" style="stroke:#038048;stroke-width:1.0;"/><text fill="#000000" font-family="sans-serif" font-size="14" lengthAdjust="spacing" textLength="61" x="27" y="756.1426">Baldosa()</text><rect fill="#F24D5C" height="6" style="stroke:#C82930;stroke-width:1.0;" width="6" x="15" y="766.5234"/><text fill="#000000" font-family="sans-serif" font-size="14" lengthAdjust="spacing" textLength="128" x="27" y="773.752">definirEstadoInicial()</text><ellipse cx="18" cy="787.1328" fill="#84BE84" rx="3" ry="3" style="stroke:#038048;stroke-width:1.0;"/><text fill="#000000" font-family="sans-serif" font-size="14" lengthAdjust="spacing" textLength="64" x="27" y="791.3613">ensuciar()</text><ellipse cx="18" cy="804.7422" fill="#84BE84" rx="3" ry="3" style="stroke:#038048;stroke-width:1.0;"/><text fill="#000000" font-family="sans-serif" font-size="14" lengthAdjust="spacing" textLength="67" x="27" y="808.9707">suciedad()</text></g><!--MD5=[911fe1357c24e8165700ac79875f9a94]
class Gato--><g id="elem_Gato"><rect codeLine="35" fill="#F1F1F1" height="136.0469" id="Gato" rx="2.5" ry="2.5" style="stroke:#181818;stroke-width:0.5;" width="225" x="196.5" y="680"/><ellipse cx="289.25" cy="696" fill="#ADD1B2" rx="11" ry="11" style="stroke:#181818;stroke-width:1.0;"/><path d="M292.0156,691.875 Q292.1719,691.6563 292.3594,691.5469 Q292.5469,691.4375 292.7656,691.4375 Q293.1406,691.4375 293.375,691.7031 Q293.6094,691.9531 293.6094,692.5625 L293.6094,694.0156 Q293.6094,694.625 293.375,694.8906 Q293.1406,695.1563 292.7656,695.1563 Q292.4219,695.1563 292.2188,694.9531 Q292.0156,694.7656 291.9063,694.25 Q291.8594,693.8906 291.6719,693.7031 Q291.3438,693.3281 290.7344,693.1094 Q290.125,692.8906 289.5,692.8906 Q288.7344,692.8906 288.0938,693.2188 Q287.4688,693.5469 286.9688,694.2969 Q286.4844,695.0469 286.4844,696.0781 L286.4844,697.1719 Q286.4844,698.4063 287.375,699.2344 Q288.2656,700.0469 289.8594,700.0469 Q290.7969,700.0469 291.4531,699.7969 Q291.8438,699.6406 292.2656,699.2031 Q292.5313,698.9375 292.6719,698.8594 Q292.8281,698.7813 293.0313,698.7813 Q293.3594,698.7813 293.6094,699.0469 Q293.875,699.2969 293.875,699.6406 Q293.875,699.9844 293.5313,700.3906 Q293.0313,700.9688 292.2344,701.2969 Q291.1563,701.75 289.8594,701.75 Q288.3438,701.75 287.1406,701.125 Q286.1563,700.625 285.4688,699.5625 Q284.7813,698.4844 284.7813,697.2031 L284.7813,696.0469 Q284.7813,694.7188 285.3906,693.5781 Q286.0156,692.4219 287.1094,691.8125 Q288.2031,691.1875 289.4375,691.1875 Q290.1719,691.1875 290.8125,691.3594 Q291.4688,691.5156 292.0156,691.875 Z " fill="#000000"/><text fill="#000000" font-family="sans-serif" font-size="14" lengthAdjust="spacing" textLength="31" x="309.75" y="701.7285">Gato</text><line style="stroke:#181818;stroke-width:0.5;" x1="197.5" x2="420.5" y1="712" y2="712"/><ellipse cx="207.5" cy="726.3047" fill="none" rx="3" ry="3" style="stroke:#038048;stroke-width:1.0;"/><text fill="#000000" font-family="sans-serif" font-size="14" lengthAdjust="spacing" textLength="79" x="216.5" y="730.5332">int posicionX</text><ellipse cx="207.5" cy="743.9141" fill="none" rx="3" ry="3" style="stroke:#038048;stroke-width:1.0;"/><text fill="#000000" font-family="sans-serif" font-size="14" lengthAdjust="spacing" textLength="80" x="216.5" y="748.1426">int posicionY</text><line style="stroke:#181818;stroke-width:0.5;" x1="197.5" x2="420.5" y1="755.2188" y2="755.2188"/><ellipse cx="207.5" cy="769.5234" fill="#84BE84" rx="3" ry="3" style="stroke:#038048;stroke-width:1.0;"/><text fill="#000000" font-family="sans-serif" font-size="14" lengthAdjust="spacing" textLength="176" x="216.5" y="773.752">Gato(Habitacion habitacion)</text><ellipse cx="207.5" cy="787.1328" fill="#84BE84" rx="3" ry="3" style="stroke:#038048;stroke-width:1.0;"/><text fill="#000000" font-family="sans-serif" font-size="14" lengthAdjust="spacing" textLength="199" x="216.5" y="791.3613">moverse(Habitacion habitacion)</text><ellipse cx="207.5" cy="804.7422" fill="#84BE84" rx="3" ry="3" style="stroke:#038048;stroke-width:1.0;"/><text fill="#000000" font-family="sans-serif" font-size="14" lengthAdjust="spacing" textLength="199" x="216.5" y="808.9707">ensuciar(Habitacion habitacion)</text></g><!--MD5=[6e08d2760e8ac984b4a01a79afafab0c]
reverse link Mundo to Habitacion--><g id="link_Mundo_Habitacion"><path codeLine="44" d="M196,156.71 C196,188.93 196,227.07 196,263.85 " fill="none" id="Mundo-backto-Habitacion" style="stroke:#181818;stroke-width:1.0;"/><polygon fill="#181818" points="196,143.29,192,149.29,196,155.29,200,149.29,196,143.29" style="stroke:#181818;stroke-width:1.0;"/></g><!--MD5=[5703bd999aab40a6a087586e2a908406]
reverse link Habitacion to Baldosa--><g id="link_Habitacion_Baldosa"><path codeLine="46" d="M142.73,571.6 C129.93,609.83 116.94,648.63 106.44,679.99 " fill="none" id="Habitacion-backto-Baldosa" style="stroke:#181818;stroke-width:1.0;"/><polygon fill="#181818" points="146.88,559.22,141.1818,563.6393,143.0694,570.5989,148.7677,566.1796,146.88,559.22" style="stroke:#181818;stroke-width:1.0;"/></g><!--MD5=[30dbf26e3f3615d431fea8d8aefd02a4]
link Habitacion to Gato--><g id="link_Habitacion_Gato"><path codeLine="47" d="M245.56,559.22 C259.8,601.35 274.62,645.24 286.36,679.99 " fill="none" id="Habitacion-Gato" style="stroke:#181818;stroke-width:1.0;stroke-dasharray:7.0,7.0;"/></g><!--MD5=[947e9c6a6460f18a1c217c0c8ac51e17]
@startuml

class Mundo{
    + Habitacion[]: habitaciones
    + Mundo()
    - iniciarMundo()
    - continuar
    + main()
}

class Habitacion {
    - Baldosa[][]: baldosas
    - Gato[]: Gato
    + int ancho
    + int largo
    + Habitacion(int ancho, int largo, int cantidadDeGatos)
    + pasarTiempo()
    - imprimirHabitacion()
    - hayGato()
    - parsear()
    - printBorder()
    - limpiarPantalla()
    + ensuciarBaldosa(int posicionX, int posicionY)
    + cambiarPosicionGato()
    - posicionInicialGato()
}

class Baldosa{
    + int estado
    + Baldosa()
    - definirEstadoInicial()
    + ensuciar()
    + suciedad()
}

class Gato{
    + int posicionX
    + int posicionY
    + Gato(Habitacion habitacion)
    + moverse(Habitacion habitacion)
    + ensuciar(Habitacion habitacion)

}

Mundo *-D- - Habitacion

Habitacion *-D- - Baldosa 
Habitacion ... Gato

@enduml

PlantUML version 1.2022.7(Mon Aug 22 19:01:30 CEST 2022)
(GPL source distribution)
Java Runtime: Java(TM) SE Runtime Environment
JVM: Java HotSpot(TM) 64-Bit Server VM
Default Encoding: UTF-8
Language: en
Country: US
--></g></svg>