<?xml version="1.0" encoding="UTF-8" standalone="no"?><svg xmlns="http://www.w3.org/2000/svg" xmlns:xlink="http://www.w3.org/1999/xlink" contentStyleType="text/css" height="823px" preserveAspectRatio="none" style="width:451px;height:823px;background:#FFFFFF;" version="1.1" viewBox="0 0 451 823" width="451px" zoomAndPan="magnify"><defs/><g><!--MD5=[919386ce46a6a5a7c71af782f732246a]
class Mundo--><g id="elem_Mundo"><rect codeLine="2" fill="#F1F1F1" height="136.0469" id="Mundo" rx="2.5" ry="2.5" style="stroke:#181818;stroke-width:0.5;" width="188" x="119.5" y="7"/><ellipse cx="187.75" cy="23" fill="#ADD1B2" rx="11" ry="11" style="stroke:#181818;stroke-width:1.0;"/><path d="M190.5156,18.875 Q190.6719,18.6563 190.8594,18.5469 Q191.0469,18.4375 191.2656,18.4375 Q191.6406,18.4375 191.875,18.7031 Q192.1094,18.9531 192.1094,19.5625 L192.1094,21.0156 Q192.1094,21.625 191.875,21.8906 Q191.6406,22.1563 191.2656,22.1563 Q190.9219,22.1563 190.7188,21.9531 Q190.5156,21.7656 190.4063,21.25 Q190.3594,20.8906 190.1719,20.7031 Q189.8438,20.3281 189.2344,20.1094 Q188.625,19.8906 188,19.8906 Q187.2344,19.8906 186.5938,20.2188 Q185.9688,20.5469 185.4688,21.2969 Q184.9844,22.0469 184.9844,23.0781 L184.9844,24.1719 Q184.9844,25.4063 185.875,26.2344 Q186.7656,27.0469 188.3594,27.0469 Q189.2969,27.0469 189.9531,26.7969 Q190.3438,26.6406 190.7656,26.2031 Q191.0313,25.9375 191.1719,25.8594 Q191.3281,25.7813 191.5313,25.7813 Q191.8594,25.7813 192.1094,26.0469 Q192.375,26.2969 192.375,26.6406 Q192.375,26.9844 192.0313,27.3906 Q191.5313,27.9688 190.7344,28.2969 Q189.6563,28.75 188.3594,28.75 Q186.8438,28.75 185.6406,28.125 Q184.6563,27.625 183.9688,26.5625 Q183.2813,25.4844 183.2813,24.2031 L183.2813,23.0469 Q183.2813,21.7188 183.8906,20.5781 Q184.5156,19.4219 185.6094,18.8125 Q186.7031,18.1875 187.9375,18.1875 Q188.6719,18.1875 189.3125,18.3594 Q189.9688,18.5156 190.5156,18.875 Z " fill="#000000"/><text fill="#000000" font-family="sans-serif" font-size="14" lengthAdjust="spacing" textLength="43" x="208.25" y="28.7285">Mundo</text><line style="stroke:#181818;stroke-width:0.5;" x1="120.5" x2="306.5" y1="39" y2="39"/><ellipse cx="130.5" cy="53.3047" fill="none" rx="3" ry="3" style="stroke:#038048;stroke-width:1.0;"/><text fill="#000000" font-family="sans-serif" font-size="14" lengthAdjust="spacing" textLength="162" x="139.5" y="57.5332">Habitacion[]: habitaciones</text><rect fill="none" height="6" style="stroke:#C82930;stroke-width:1.0;" width="6" x="127.5" y="67.9141"/><text fill="#000000" font-family="sans-serif" font-size="14" lengthAdjust="spacing" textLength="59" x="139.5" y="75.1426">continuar</text><line style="stroke:#181818;stroke-width:0.5;" x1="120.5" x2="306.5" y1="82.2188" y2="82.2188"/><ellipse cx="130.5" cy="96.5234" fill="#84BE84" rx="3" ry="3" style="stroke:#038048;stroke-width:1.0;"/><text fill="#000000" font-family="sans-serif" font-size="14" lengthAdjust="spacing" textLength="53" x="139.5" y="100.752">Mundo()</text><rect fill="#F24D5C" height="6" style="stroke:#C82930;stroke-width:1.0;" width="6" x="127.5" y="111.1328"/><text fill="#000000" font-family="sans-serif" font-size="14" lengthAdjust="spacing" textLength="90" x="139.5" y="118.3613">iniciarMundo()</text><ellipse cx="130.5" cy="131.7422" fill="#84BE84" rx="3" ry="3" style="stroke:#038048;stroke-width:1.0;"/><text fill="#000000" font-family="sans-serif" font-size="14" lengthAdjust="spacing" textLength="40" x="139.5" y="135.9707">main()</text></g><!--MD5=[90b9a4c9b73c006688efe43144d747a1]
class Habitacion--><g id="elem_Habitacion"><rect codeLine="10" fill="#F1F1F1" height="294.5313" id="Habitacion" rx="2.5" ry="2.5" style="stroke:#181818;stroke-width:0.5;" width="356" x="35.5" y="264"/><ellipse cx="176.25" cy="280" fill="#ADD1B2" rx="11" ry="11" style="stroke:#181818;stroke-width:1.0;"/><path d="M179.0156,275.875 Q179.1719,275.6563 179.3594,275.5469 Q179.5469,275.4375 179.7656,275.4375 Q180.1406,275.4375 180.375,275.7031 Q180.6094,275.9531 180.6094,276.5625 L180.6094,278.0156 Q180.6094,278.625 180.375,278.8906 Q180.1406,279.1563 179.7656,279.1563 Q179.4219,279.1563 179.2188,278.9531 Q179.0156,278.7656 178.9063,278.25 Q178.8594,277.8906 178.6719,277.7031 Q178.3438,277.3281 177.7344,277.1094 Q177.125,276.8906 176.5,276.8906 Q175.7344,276.8906 175.0938,277.2188 Q174.4688,277.5469 173.9688,278.2969 Q173.4844,279.0469 173.4844,280.0781 L173.4844,281.1719 Q173.4844,282.4063 174.375,283.2344 Q175.2656,284.0469 176.8594,284.0469 Q177.7969,284.0469 178.4531,283.7969 Q178.8438,283.6406 179.2656,283.2031 Q179.5313,282.9375 179.6719,282.8594 Q179.8281,282.7813 180.0313,282.7813 Q180.3594,282.7813 180.6094,283.0469 Q180.875,283.2969 180.875,283.6406 Q180.875,283.9844 180.5313,284.3906 Q180.0313,284.9688 179.2344,285.2969 Q178.1563,285.75 176.8594,285.75 Q175.3438,285.75 174.1406,285.125 Q173.1563,284.625 172.4688,283.5625 Q171.7813,282.4844 171.7813,281.2031 L171.7813,280.0469 Q171.7813,278.7188 172.3906,277.5781 Q173.0156,276.4219 174.1094,275.8125 Q175.2031,275.1875 176.4375,275.1875 Q177.1719,275.1875 177.8125,275.3594 Q178.4688,275.5156 179.0156,275.875 Z " fill="#000000"/><text fill="#000000" font-family="sans-serif" font-size="14" lengthAdjust="spacing" textLength="66" x="196.75" y="285.7285">Habitacion</text><line style="stroke:#181818;stroke-width:0.5;" x1="36.5" x2="390.5" y1="296" y2="296"/><rect fill="none" height="6" style="stroke:#C82930;stroke-width:1.0;" width="6" x="43.5" y="307.3047"/><text fill="#000000" font-family="sans-serif" font-size="14" lengthAdjust="spacing" textLength="132" x="55.5" y="314.5332">Baldosa[][]: baldosas</text><rect fill="none" height="6" style="stroke:#C82930;stroke-width:1.0;" width="6" x="43.5" y="324.9141"/><text fill="#000000" font-family="sans-serif" font-size="14" lengthAdjust="spacing" textLength="78" x="55.5" y="332.1426">Gato[]: Gato</text><ellipse cx="46.5" cy="345.5234" fill="none" rx="3" ry="3" style="stroke:#038048;stroke-width:1.0;"/><text fill="#000000" font-family="sans-serif" font-size="14" lengthAdjust="spacing" textLength="58" x="55.5" y="349.752">int ancho</text><ellipse cx="46.5" cy="363.1328" fill="none" rx="3" ry="3" style="stroke:#038048;stroke-width:1.0;"/><text fill="#000000" font-family="sans-serif" font-size="14" lengthAdjust="spacing" textLength="51" x="55.5" y="367.3613">int largo</text><line style="stroke:#181818;stroke-width:0.5;" x1="36.5" x2="390.5" y1="374.4375" y2="374.4375"/><ellipse cx="46.5" cy="388.7422" fill="#84BE84" rx="3" ry="3" style="stroke:#038048;stroke-width:1.0;"/><text fill="#000000" font-family="sans-serif" font-size="14" lengthAdjust="spacing" textLength="330" x="55.5" y="392.9707">Habitacion(int ancho, int largo, int cantidadDeGatos)</text><ellipse cx="46.5" cy="406.3516" fill="#84BE84" rx="3" ry="3" style="stroke:#038048;stroke-width:1.0;"/><text fill="#000000" font-family="sans-serif" font-size="14" lengthAdjust="spacing" textLength="93" x="55.5" y="410.5801">pasarTiempo()</text><rect fill="#F24D5C" height="6" style="stroke:#C82930;stroke-width:1.0;" width="6" x="43.5" y="420.9609"/><text fill="#000000" font-family="sans-serif" font-size="14" lengthAdjust="spacing" textLength="125" x="55.5" y="428.1895">imprimirHabitacion()</text><rect fill="#F24D5C" height="6" style="stroke:#C82930;stroke-width:1.0;" width="6" x="43.5" y="438.5703"/><text fill="#000000" font-family="sans-serif" font-size="14" lengthAdjust="spacing" textLength="145" x="55.5" y="445.7988">comprobarSiHayGato()</text><rect fill="#F24D5C" height="6" style="stroke:#C82930;stroke-width:1.0;" width="6" x="43.5" y="456.1797"/><text fill="#000000" font-family="sans-serif" font-size="14" lengthAdjust="spacing" textLength="105" x="55.5" y="463.4082">parseSuciedad()</text><rect fill="#F24D5C" height="6" style="stroke:#C82930;stroke-width:1.0;" width="6" x="43.5" y="473.7891"/><text fill="#000000" font-family="sans-serif" font-size="14" lengthAdjust="spacing" textLength="81" x="55.5" y="481.0176">printBorder()</text><rect fill="#F24D5C" height="6" style="stroke:#C82930;stroke-width:1.0;" width="6" x="43.5" y="491.3984"/><text fill="#000000" font-family="sans-serif" font-size="14" lengthAdjust="spacing" textLength="102" x="55.5" y="498.627">limpiarPantalla()</text><ellipse cx="46.5" cy="512.0078" fill="#84BE84" rx="3" ry="3" style="stroke:#038048;stroke-width:1.0;"/><text fill="#000000" font-family="sans-serif" font-size="14" lengthAdjust="spacing" textLength="282" x="55.5" y="516.2363">ensuciarBaldosa(int posicionX, int posicionY)</text><ellipse cx="46.5" cy="529.6172" fill="#84BE84" rx="3" ry="3" style="stroke:#038048;stroke-width:1.0;"/><text fill="#000000" font-family="sans-serif" font-size="14" lengthAdjust="spacing" textLength="144" x="55.5" y="533.8457">cambiarPosicionGato()</text><rect fill="#F24D5C" height="6" style="stroke:#C82930;stroke-width:1.0;" width="6" x="43.5" y="544.2266"/><text fill="#000000" font-family="sans-serif" font-size="14" lengthAdjust="spacing" textLength="128" x="55.5" y="551.4551">posicionInicialGato()</text></g><!--MD5=[b6c30708762b61ff1436eb707341f1f5]
class Baldosa--><g id="elem_Baldosa"><rect codeLine="27" fill="#F1F1F1" height="136.0469" id="Baldosa" rx="2.5" ry="2.5" style="stroke:#181818;stroke-width:0.5;" width="177" x="7" y="680"/><ellipse cx="65.75" cy="696" fill="#ADD1B2" rx="11" ry="11" style="stroke:#181818;stroke-width:1.0;"/><path d="M68.5156,691.875 Q68.6719,691.6563 68.8594,691.5469 Q69.0469,691.4375 69.2656,691.4375 Q69.6406,691.4375 69.875,691.7031 Q70.1094,691.9531 70.1094,692.5625 L70.1094,694.0156 Q70.1094,694.625 69.875,694.8906 Q69.6406,695.1563 69.2656,695.1563 Q68.9219,695.1563 68.7188,694.9531 Q68.5156,694.7656 68.4063,694.25 Q68.3594,693.8906 68.1719,693.7031 Q67.8438,693.3281 67.2344,693.1094 Q66.625,692.8906 66,692.8906 Q65.2344,692.8906 64.5938,693.2188 Q63.9688,693.5469 63.4688,694.2969 Q62.9844,695.0469 62.9844,696.0781 L62.9844,697.1719 Q62.9844,698.4063 63.875,699.2344 Q64.7656,700.0469 66.3594,700.0469 Q67.2969,700.0469 67.9531,699.7969 Q68.3438,699.6406 68.7656,699.2031 Q69.0313,698.9375 69.1719,698.8594 Q69.3281,698.7813 69.5313,698.7813 Q69.8594,698.7813 70.1094,699.0469 Q70.375,699.2969 70.375,699.6406 Q70.375,699.9844 70.0313,700.3906 Q69.5313,700.9688 68.7344,701.2969 Q67.6563,701.75 66.3594,701.75 Q64.8438,701.75 63.6406,701.125 Q62.6563,700.625 61.9688,699.5625 Q61.2813,698.4844 61.2813,697.2031 L61.2813,696.0469 Q61.2813,694.7188 61.8906,693.5781 Q62.5156,692.4219 63.6094,691.8125 Q64.7031,691.1875 65.9375,691.1875 Q66.6719,691.1875 67.3125,691.3594 Q67.9688,691.5156 68.5156,691.875 Z " fill="#000000"/><text fill="#000000" font-family="sans-serif" font-size="14" lengthAdjust="spacing" textLength="51" x="86.25" y="701.7285">Baldosa</text><line style="stroke:#181818;stroke-width:0.5;" x1="8" x2="183" y1="712" y2="712"/><ellipse cx="18" cy="726.3047" fill="none" rx="3" ry="3" style="stroke:#038048;stroke-width:1.0;"/><text fill="#000000" font-family="sans-serif" font-size="14" lengthAdjust="spacing" textLength="62" x="27" y="730.5332">int estado</text><line style="stroke:#181818;stroke-width:0.5;" x1="8" x2="183" y1="737.6094" y2="737.6094"/><ellipse cx="18" cy="751.9141" fill="#84BE84" rx="3" ry="3" style="stroke:#038048;stroke-width:1.0;"/><text fill="#000000" font-family="sans-serif" font-size="14" lengthAdjust="spacing" textLength="61" x="27" y="756.1426">Baldosa()</text><rect fill="#F24D5C" height="6" style="stroke:#C82930;stroke-width:1.0;" width="6" x="15" y="766.5234"/><text fill="#000000" font-family="sans-serif" font-size="14" lengthAdjust="spacing" textLength="128" x="27" y="773.752">definirEstadoInicial()</text><ellipse cx="18" cy="787.1328" fill="#84BE84" rx="3" ry="3" style="stroke:#038048;stroke-width:1.0;"/><text fill="#000000" font-family="sans-serif" font-size="14" lengthAdjust="spacing" textLength="115" x="27" y="791.3613">ensuciarBaldosa()</text><ellipse cx="18" cy="804.7422" fill="#84BE84" rx="3" ry="3" style="stroke:#038048;stroke-width:1.0;"/><text fill="#000000" font-family="sans-serif" font-size="14" lengthAdjust="spacing" textLength="151" x="27" y="808.9707">verEstadoDeSuciedad()</text></g><!--MD5=[911fe1357c24e8165700ac79875f9a94]
class Gato--><g id="elem_Gato"><rect codeLine="35" fill="#F1F1F1" height="136.0469" id="Gato" rx="2.5" ry="2.5" style="stroke:#181818;stroke-width:0.5;" width="225" x="219" y="680"/><ellipse cx="311.75" cy="696" fill="#ADD1B2" rx="11" ry="11" style="stroke:#181818;stroke-width:1.0;"/><path d="M314.5156,691.875 Q314.6719,691.6563 314.8594,691.5469 Q315.0469,691.4375 315.2656,691.4375 Q315.6406,691.4375 315.875,691.7031 Q316.1094,691.9531 316.1094,692.5625 L316.1094,694.0156 Q316.1094,694.625 315.875,694.8906 Q315.6406,695.1563 315.2656,695.1563 Q314.9219,695.1563 314.7188,694.9531 Q314.5156,694.7656 314.4063,694.25 Q314.3594,693.8906 314.1719,693.7031 Q313.8438,693.3281 313.2344,693.1094 Q312.625,692.8906 312,692.8906 Q311.2344,692.8906 310.5938,693.2188 Q309.9688,693.5469 309.4688,694.2969 Q308.9844,695.0469 308.9844,696.0781 L308.9844,697.1719 Q308.9844,698.4063 309.875,699.2344 Q310.7656,700.0469 312.3594,700.0469 Q313.2969,700.0469 313.9531,699.7969 Q314.3438,699.6406 314.7656,699.2031 Q315.0313,698.9375 315.1719,698.8594 Q315.3281,698.7813 315.5313,698.7813 Q315.8594,698.7813 316.1094,699.0469 Q316.375,699.2969 316.375,699.6406 Q316.375,699.9844 316.0313,700.3906 Q315.5313,700.9688 314.7344,701.2969 Q313.6563,701.75 312.3594,701.75 Q310.8438,701.75 309.6406,701.125 Q308.6563,700.625 307.9688,699.5625 Q307.2813,698.4844 307.2813,697.2031 L307.2813,696.0469 Q307.2813,694.7188 307.8906,693.5781 Q308.5156,692.4219 309.6094,691.8125 Q310.7031,691.1875 311.9375,691.1875 Q312.6719,691.1875 313.3125,691.3594 Q313.9688,691.5156 314.5156,691.875 Z " fill="#000000"/><text fill="#000000" font-family="sans-serif" font-size="14" lengthAdjust="spacing" textLength="31" x="332.25" y="701.7285">Gato</text><line style="stroke:#181818;stroke-width:0.5;" x1="220" x2="443" y1="712" y2="712"/><ellipse cx="230" cy="726.3047" fill="none" rx="3" ry="3" style="stroke:#038048;stroke-width:1.0;"/><text fill="#000000" font-family="sans-serif" font-size="14" lengthAdjust="spacing" textLength="79" x="239" y="730.5332">int posicionX</text><ellipse cx="230" cy="743.9141" fill="none" rx="3" ry="3" style="stroke:#038048;stroke-width:1.0;"/><text fill="#000000" font-family="sans-serif" font-size="14" lengthAdjust="spacing" textLength="80" x="239" y="748.1426">int posicionY</text><line style="stroke:#181818;stroke-width:0.5;" x1="220" x2="443" y1="755.2188" y2="755.2188"/><ellipse cx="230" cy="769.5234" fill="#84BE84" rx="3" ry="3" style="stroke:#038048;stroke-width:1.0;"/><text fill="#000000" font-family="sans-serif" font-size="14" lengthAdjust="spacing" textLength="176" x="239" y="773.752">Gato(Habitacion habitacion)</text><ellipse cx="230" cy="787.1328" fill="#84BE84" rx="3" ry="3" style="stroke:#038048;stroke-width:1.0;"/><text fill="#000000" font-family="sans-serif" font-size="14" lengthAdjust="spacing" textLength="199" x="239" y="791.3613">moverse(Habitacion habitacion)</text><ellipse cx="230" cy="804.7422" fill="#84BE84" rx="3" ry="3" style="stroke:#038048;stroke-width:1.0;"/><text fill="#000000" font-family="sans-serif" font-size="14" lengthAdjust="spacing" textLength="199" x="239" y="808.9707">ensuciar(Habitacion habitacion)</text></g><!--MD5=[6e08d2760e8ac984b4a01a79afafab0c]
reverse link Mundo to Habitacion--><g id="link_Mundo_Habitacion"><path codeLine="44" d="M213.5,156.71 C213.5,188.93 213.5,227.07 213.5,263.85 " fill="none" id="Mundo-backto-Habitacion" style="stroke:#181818;stroke-width:1.0;"/><polygon fill="#181818" points="213.5,143.29,209.5,149.29,213.5,155.29,217.5,149.29,213.5,143.29" style="stroke:#181818;stroke-width:1.0;"/></g><!--MD5=[5703bd999aab40a6a087586e2a908406]
reverse link Habitacion to Baldosa--><g id="link_Habitacion_Baldosa"><path codeLine="46" d="M157.38,571.6 C143.89,609.83 130.2,648.63 119.14,679.99 " fill="none" id="Habitacion-backto-Baldosa" style="stroke:#181818;stroke-width:1.0;"/><polygon fill="#181818" points="161.74,559.22,155.9703,563.5456,157.7441,570.5352,163.5138,566.2095,161.74,559.22" style="stroke:#181818;stroke-width:1.0;"/></g><!--MD5=[30dbf26e3f3615d431fea8d8aefd02a4]
link Habitacion to Gato--><g id="link_Habitacion_Gato"><path codeLine="47" d="M265.26,559.22 C280.12,601.35 295.6,645.24 307.86,679.99 " fill="none" id="Habitacion-Gato" style="stroke:#181818;stroke-width:1.0;stroke-dasharray:7.0,7.0;"/></g><!--MD5=[e9f2c3f6869cd249e145118de94e2577]
@startuml

class Mundo{
    + Habitacion[]: habitaciones
    + Mundo()
    - iniciarMundo()
    - continuar
    + main()
}

class Habitacion {
    - Baldosa[][]: baldosas
    - Gato[]: Gato
    + int ancho
    + int largo
    + Habitacion(int ancho, int largo, int cantidadDeGatos)
    + pasarTiempo()
    - imprimirHabitacion()
    - comprobarSiHayGato()
    - parseSuciedad()
    - printBorder()
    - limpiarPantalla()
    + ensuciarBaldosa(int posicionX, int posicionY)
    + cambiarPosicionGato()
    - posicionInicialGato()
}

class Baldosa{
    + int estado
    + Baldosa()
    - definirEstadoInicial()
    + ensuciarBaldosa()
    + verEstadoDeSuciedad()
}

class Gato{
    + int posicionX
    + int posicionY
    + Gato(Habitacion habitacion)
    + moverse(Habitacion habitacion)
    + ensuciar(Habitacion habitacion)

}

Mundo *-D- - Habitacion

Habitacion *-D- - Baldosa 
Habitacion ... Gato

@enduml

PlantUML version 1.2022.7(Mon Aug 22 19:01:30 CEST 2022)
(GPL source distribution)
Java Runtime: Java(TM) SE Runtime Environment
JVM: Java HotSpot(TM) 64-Bit Server VM
Default Encoding: UTF-8
Language: en
Country: US
--></g></svg>